<?xml version="1.0" encoding="UTF-8"?>
<svg version="1.1" xmlns="http://www.w3.org/2000/svg" width="225" height="225">
<path d="M0 0 C74.25 0 148.5 0 225 0 C225 74.25 225 148.5 225 225 C150.75 225 76.5 225 0 225 C0 150.75 0 76.5 0 0 Z " fill="#FDFDFD" transform="translate(0,0)"/>
<path d="M0 0 C74.25 0 148.5 0 225 0 C225 74.25 225 148.5 225 225 C150.75 225 76.5 225 0 225 C0 150.75 0 76.5 0 0 Z M42 32 C41.49903809 32.4532666 40.99807617 32.9065332 40.48193359 33.37353516 C21.19938778 51.03521251 7.0764816 76.1565759 5.87744141 102.71459961 C5.02485233 134.17513648 12.20920299 161.58381089 33.97265625 185.2890625 C52.7338932 205.077797 78.08339166 218.45719057 105.6875 219.203125 C138.23131016 219.60911963 165.46972691 210.42356387 189.125 187.375 C209.9623274 166.39549651 219.43121013 138.93371509 219.36791992 109.66308594 C218.91840283 80.800254 206.50728645 54.84586776 186.07299805 34.65551758 C166.39346105 15.877853 139.82585684 5.53913914 112.75 5.6875 C111.11430054 5.69595947 111.11430054 5.69595947 109.44555664 5.70458984 C84.67497015 6.07465555 60.42313506 15.19648121 42 32 Z " fill="#212121" transform="translate(0,0)"/>
<path d="M0 0 C6.49859833 3.60879609 10.87140737 10.45093439 14 17 C14.92802338 20.29846024 15.07743169 22.73198896 14 26 C11.96783017 29.01498245 9.64403535 31.51447996 7 34 C5.69647771 35.11169115 5.69647771 35.11169115 5.5 37.875 C5.78819659 49.69106038 19.93631098 61.05873887 27.8671875 68.8359375 C34.29916759 74.90349946 40.86491511 80.86854062 49.6875 82.8125 C53.91114716 81.77651107 55.69123928 79.83257794 58.51953125 76.62890625 C60.81150548 74.10712985 62.69993919 73.75696787 66 73.5625 C73.77967174 73.66256009 79.69385962 78.5131054 85.0625 83.75 C87.80197358 86.61194416 88.91496962 88.13269012 89.3125 92.1875 C88.72206539 99.39080226 84.70450677 103.62984214 79.78125 108.51953125 C74.34958538 113.03400689 68.77611858 112.49702581 62 112 C47.85725369 110.06953611 33.87005918 100.78921928 23 92 C22.46310547 91.56848633 21.92621094 91.13697266 21.37304688 90.69238281 C1.8665124 74.89143014 -21.08105962 51.27046344 -24 25 C-24.10054687 24.15953125 -24.20109375 23.3190625 -24.3046875 22.453125 C-24.67140549 17.14304858 -24.47970149 13.81610621 -20.9375 9.6875 C-19.65820715 8.42380828 -18.34485047 7.19368511 -17 6 C-16.35546875 5.40960938 -15.7109375 4.81921875 -15.046875 4.2109375 C-10.0124968 -0.25231376 -6.86164675 -1.95868825 0 0 Z " fill="#202020" transform="translate(74,63)"/>
<path d="M0 0 C18.6672555 3.69470513 34.5958535 15.6086578 45.25 31.1015625 C51.11936432 40.82269715 55.35352461 50.75185488 55.375 62.1875 C55.39949219 62.88552734 55.42398438 63.58355469 55.44921875 64.30273438 C55.46907469 67.7808329 55.26134314 69.65482981 53.13671875 72.4609375 C51 74 51 74 48.4375 74.4375 C45.44401123 73.90020714 44.7525114 73.47442661 43 71 C42.72161538 68.44472219 42.59036442 66.05700496 42.5625 63.5 C42.09760408 51.68101735 38.30809171 43.28994709 31 34 C30.4534375 33.2884375 29.906875 32.576875 29.34375 31.84375 C21.71323049 22.48556569 11.34450146 16.78150049 0 13 C-3.39940613 12.83795204 -6.79243473 12.70361519 -10.1953125 12.65820312 C-15.5234883 12.4468456 -15.5234883 12.4468456 -18.0078125 10.1171875 C-19.33541742 7.28426677 -19.0471531 5.91706934 -18 3 C-14.24976879 -2.36671019 -5.81902093 -0.71116817 0 0 Z " fill="#202020" transform="translate(120,50)"/>
<path d="M0 0 C12.12387222 2.81044077 20.84666042 9.76831463 28.30859375 19.53515625 C32.02933932 25.57861576 35.09229575 32.32509789 34.30859375 39.53515625 C33.18359375 41.91015625 33.18359375 41.91015625 31.30859375 43.53515625 C28.30859375 44.03515625 28.30859375 44.03515625 25.30859375 43.53515625 C22.78446128 40.80884812 21.86574002 38.4279265 21.05859375 34.84765625 C18.61583635 26.29800534 13.18292793 20.38969451 5.71875 15.7421875 C2.41207365 14.08616968 -0.93376911 13.11193825 -4.52734375 12.2734375 C-7.00674079 11.42757822 -8.14496117 10.643945 -9.69140625 8.53515625 C-9.56640625 4.97265625 -9.56640625 4.97265625 -8.69140625 1.53515625 C-5.3140279 -0.71642932 -3.90558333 -0.62346009 0 0 Z " fill="#202020" transform="translate(116.69140625,74.46484375)"/>
<path d="M0 0 C5.72669507 0.20093667 9.0683447 1.00180835 13.25390625 4.984375 C16.68429413 8.94428585 19.80989203 13.23075173 22 18 C21.6875 20.3359375 21.6875 20.3359375 21 22 C20.01 22 19.02 22 18 22 C18 20.35 18 18.7 18 17 C16.35 17 14.7 17 13 17 C12.67 18.65 12.34 20.3 12 22 C10.35 22 8.7 22 7 22 C7 20.35 7 18.7 7 17 C5.02 17 3.04 17 1 17 C1 15.02 1 13.04 1 11 C-0.65 11 -2.3 11 -4 11 C-4 9.35 -4 7.7 -4 6 C-2.35 5.67 -0.7 5.34 1 5 C0.67 3.35 0.34 1.7 0 0 Z " fill="#232323" transform="translate(66,62)"/>
<path d="M0 0 C-1.32 0.33 -2.64 0.66 -4 1 C-4 1.99 -4 2.98 -4 4 C-2.02 4 -0.04 4 2 4 C2 5.65 2 7.3 2 9 C0.02 9 -1.96 9 -4 9 C-4 10.98 -4 12.96 -4 15 C-9.28 15 -14.56 15 -20 15 C-20 10 -20 10 -17.8828125 7.578125 C-16.97273438 6.80984375 -16.06265625 6.0415625 -15.125 5.25 C-14.22007812 4.47140625 -13.31515625 3.6928125 -12.3828125 2.890625 C-8.08629944 -0.5184116 -5.35929636 -0.08644026 0 0 Z " fill="#272727" transform="translate(144,137)"/>
<path d="M0 0 C0.33 0 0.66 0 1 0 C1 1.65 1 3.3 1 5 C2.65 5 4.3 5 6 5 C6 6.98 6 8.96 6 11 C7.98 11 9.96 11 12 11 C12.042721 12.66611905 12.04063832 14.33382885 12 16 C11 17 11 17 8.4375 17.0625 C7.633125 17.041875 6.82875 17.02125 6 17 C6 18.65 6 20.3 6 22 C7.98 22 9.96 22 12 22 C12 20.35 12 18.7 12 17 C13.65 17 15.3 17 17 17 C17 18.65 17 20.3 17 22 C15.68 22.33 14.36 22.66 13 23 C12.67 24.65 12.34 26.3 12 28 C10.35 28.33 8.7 28.66 7 29 C6.01233987 26.79513181 5.03481484 24.58662689 4.0625 22.375 C3.78470703 21.75753906 3.50691406 21.14007813 3.22070312 20.50390625 C0.82407756 15.01765497 -0.15276291 10.08235201 -0.0625 4.125 C-0.05347656 3.34382813 -0.04445312 2.56265625 -0.03515625 1.7578125 C-0.02355469 1.17773438 -0.01195312 0.59765625 0 0 Z " fill="#181818" transform="translate(50,79)"/>
<path d="M0 0 C1.65 0 3.3 0 5 0 C5 1.65 5 3.3 5 5 C5.66 5 6.32 5 7 5 C6.45550236 8.79472973 4.96207612 10.27031268 2.0625 12.6875 C1.35222656 13.28949219 0.64195312 13.89148438 -0.08984375 14.51171875 C-3.54285455 17.2021014 -5.79168001 17.10859915 -10.125 17.0625 C-11.22070312 17.05347656 -12.31640625 17.04445312 -13.4453125 17.03515625 C-14.70988281 17.01775391 -14.70988281 17.01775391 -16 17 C-14.68 16.67 -13.36 16.34 -12 16 C-12 14.35 -12 12.7 -12 11 C-10.02 11 -8.04 11 -6 11 C-6 9.02 -6 7.04 -6 5 C-4.02 5 -2.04 5 0 5 C0 3.35 0 1.7 0 0 Z " fill="#262626" transform="translate(152,158)"/>
<path d="M0 0 C0.33 0 0.66 0 1 0 C1 6.93 1 13.86 1 21 C2.65 21 4.3 21 6 21 C6 26.61 6 32.22 6 38 C4.02 38 2.04 38 0 38 C0 39.98 0 41.96 0 44 C-0.99 44 -1.98 44 -3 44 C-2.86722656 43.16984375 -2.73445312 42.3396875 -2.59765625 41.484375 C-0.62445779 27.71519454 -0.3601431 13.89039744 0 0 Z " fill="#1F1F1F" transform="translate(219,97)"/>
<path d="M0 0 C1.65 0 3.3 0 5 0 C5.33 1.65 5.66 3.3 6 5 C4.35 5.33 2.7 5.66 1 6 C1 7.65 1 9.3 1 11 C2.32 10.67 3.64 10.34 5 10 C5.33 8.68 5.66 7.36 6 6 C7.65 6 9.3 6 11 6 C11 4.35 11 2.7 11 1 C11.33 1 11.66 1 12 1 C12.10841951 2.91541138 12.18578079 4.83259773 12.25 6.75 C12.29640625 7.81734375 12.3428125 8.8846875 12.390625 9.984375 C12 13 12 13 10.14453125 15.36328125 C8 17 8 17 5.4375 17.4375 C2.456718 16.90248785 1.74242402 16.46342707 0 14 C-0.29296875 10.64453125 -0.29296875 10.64453125 -0.1875 6.8125 C-0.16042969 5.54019531 -0.13335937 4.26789063 -0.10546875 2.95703125 C-0.07066406 1.98121094 -0.03585938 1.00539063 0 0 Z " fill="#1A1A1A" transform="translate(163,107)"/>
<path d="M0 0 C2.78416841 0.5715148 5.41559273 1.42879649 8.07421875 2.42578125 C7.41421875 4.73578125 6.75421875 7.04578125 6.07421875 9.42578125 C4.42421875 9.42578125 2.77421875 9.42578125 1.07421875 9.42578125 C1.07421875 7.77578125 1.07421875 6.12578125 1.07421875 4.42578125 C-0.90578125 4.42578125 -2.88578125 4.42578125 -4.92578125 4.42578125 C-5.25578125 6.73578125 -5.58578125 9.04578125 -5.92578125 11.42578125 C-7.24578125 10.43578125 -8.56578125 9.44578125 -9.92578125 8.42578125 C-9.61328125 5.05078125 -9.61328125 5.05078125 -8.92578125 1.42578125 C-5.4647927 -0.88154445 -3.99452536 -0.61283846 0 0 Z " fill="#272727" transform="translate(116.92578125,74.57421875)"/>
<path d="M0 0 C1.32 0 2.64 0 4 0 C4 1.98 4 3.96 4 6 C5.98 6 7.96 6 10 6 C10 7.65 10 9.3 10 11 C4.39 11 -1.22 11 -7 11 C-7 9.35 -7 7.7 -7 6 C-5.35 6 -3.7 6 -2 6 C-1.34 4.02 -0.68 2.04 0 0 Z " fill="#272727" transform="translate(198,214)"/>
<path d="M0 0 C0.99 0.33 1.98 0.66 3 1 C3 2.65 3 4.3 3 6 C4.98 6 6.96 6 9 6 C9 7.65 9 9.3 9 11 C3.39 11 -2.22 11 -8 11 C-8 9.35 -8 7.7 -8 6 C-6.35 6 -4.7 6 -3 6 C-2.814375 4.7934375 -2.814375 4.7934375 -2.625 3.5625 C-2.41875 2.716875 -2.2125 1.87125 -2 1 C-1.34 0.67 -0.68 0.34 0 0 Z " fill="#202020" transform="translate(143,214)"/>
<path d="M0 0 C5.61 0 11.22 0 17 0 C17 1.65 17 3.3 17 5 C19.31 5 21.62 5 24 5 C24 5.33 24 5.66 24 6 C14.76 6 5.52 6 -4 6 C-2.68 5.67 -1.36 5.34 0 5 C0 3.35 0 1.7 0 0 Z " fill="#141414" transform="translate(101,0)"/>
<path d="M0 0 C1.65 0 3.3 0 5 0 C5 1.98 5 3.96 5 6 C6.98 6 8.96 6 11 6 C11 7.65 11 9.3 11 11 C5.72 11 0.44 11 -5 11 C-5 9.35 -5 7.7 -5 6 C-3.35 6 -1.7 6 0 6 C0 4.02 0 2.04 0 0 Z " fill="#262626" transform="translate(17,214)"/>
<path d="M0 0 C5.61 0 11.22 0 17 0 C16.67 2.64 16.34 5.28 16 8 C13.03 7.67 10.06 7.34 7 7 C7 6.34 7 5.68 7 5 C4.69 5 2.38 5 0 5 C0 3.35 0 1.7 0 0 Z " fill="#1C1C1C" transform="translate(118,0)"/>
<path d="M0 0 C0.99 0.66 1.98 1.32 3 2 C2.67 3.65 2.34 5.3 2 7 C0.02 7 -1.96 7 -4 7 C-3.67 5.35 -3.34 3.7 -3 2 C-2.01 2 -1.02 2 0 2 C0 1.34 0 0.68 0 0 Z M-15 2 C-13.02 2 -11.04 2 -9 2 C-9 3.65 -9 5.3 -9 7 C-7.35 7 -5.7 7 -4 7 C-4 8.98 -4 10.96 -4 13 C-5.65 13 -7.3 13 -9 13 C-9.33 11.35 -9.66 9.7 -10 8 C-11.65 7.67 -13.3 7.34 -15 7 C-15 5.35 -15 3.7 -15 2 Z M-18 7 C-17.01 7 -16.02 7 -15 7 C-15 8.32 -15 9.64 -15 11 C-15.66 11 -16.32 11 -17 11 C-17.33 9.68 -17.66 8.36 -18 7 Z " fill="#191919" transform="translate(82,111)"/>
<path d="M0 0 C1.08667969 0.02707031 2.17335938 0.05414063 3.29296875 0.08203125 C4.54013672 0.13423828 4.54013672 0.13423828 5.8125 0.1875 C5.8125 0.5175 5.8125 0.8475 5.8125 1.1875 C4.1625 1.1875 2.5125 1.1875 0.8125 1.1875 C0.8125 2.8375 0.8125 4.4875 0.8125 6.1875 C-0.5075 6.5175 -1.8275 6.8475 -3.1875 7.1875 C-3.5175 8.5075 -3.8475 9.8275 -4.1875 11.1875 C-0.5575 11.1875 3.0725 11.1875 6.8125 11.1875 C6.8125 11.5175 6.8125 11.8475 6.8125 12.1875 C4.54270335 12.29544277 2.27144804 12.37306176 0 12.4375 C-1.26457031 12.48390625 -2.52914062 12.5303125 -3.83203125 12.578125 C-7.1875 12.1875 -7.1875 12.1875 -9.14453125 10.33203125 C-10.1875 8.1875 -10.1875 8.1875 -10.0625 5.625 C-8.11664025 0.2043907 -5.52528584 -0.17823503 0 0 Z " fill="#121212" transform="translate(111.1875,49.8125)"/>
<path d="M0 0 C1.65 0 3.3 0 5 0 C5 1.98 5 3.96 5 6 C3.35 6 1.7 6 0 6 C0.020625 6.804375 0.04125 7.60875 0.0625 8.4375 C0 11 0 11 -1 12 C-2.66617115 12.04063832 -4.33388095 12.042721 -6 12 C-6 13.65 -6 15.3 -6 17 C-7.98 17 -9.96 17 -12 17 C-12 15.02 -12 13.04 -12 11 C-10.02 11 -8.04 11 -6 11 C-6 9.35 -6 7.7 -6 6 C-4.35 5.67 -2.7 5.34 -1 5 C-0.67 3.35 -0.34 1.7 0 0 Z " fill="#272727" transform="translate(197,11)"/>
<path d="M0 0 C1.65 0 3.3 0 5 0 C5 1.65 5 3.3 5 5 C3.68 5.33 2.36 5.66 1 6 C1 7.65 1 9.3 1 11 C-0.60149886 11.67305018 -2.20631029 12.33822227 -3.8125 13 C-4.70582031 13.37125 -5.59914063 13.7425 -6.51953125 14.125 C-9 15 -9 15 -12 15 C-12 13.68 -12 12.36 -12 11 C-10.02 11 -8.04 11 -6 11 C-6 9.02 -6 7.04 -6 5 C-4.35 4.67 -2.7 4.34 -1 4 C-0.67 2.68 -0.34 1.36 0 0 Z " fill="#1A1A1A" transform="translate(79,0)"/>
<path d="M0 0 C1.98 0 3.96 0 6 0 C6 1.65 6 3.3 6 5 C7.65 5 9.3 5 11 5 C11 6.98 11 8.96 11 11 C9.35 11 7.7 11 6 11 C5.67 9.35 5.34 7.7 5 6 C3.35 5.67 1.7 5.34 0 5 C0 3.35 0 1.7 0 0 Z M-4 5 C-2.68 5 -1.36 5 0 5 C0 6.98 0 8.96 0 11 C-1.65 11 -3.3 11 -5 11 C-5.042721 9.33388095 -5.04063832 7.66617115 -5 6 C-4.67 5.67 -4.34 5.34 -4 5 Z " fill="#272727" transform="translate(6,158)"/>
<path d="M0 0 C0.99 0 1.98 0 3 0 C3.33 2.31 3.66 4.62 4 7 C4.33 7 4.66 7 5 7 C5.19412181 8.47831221 5.38012131 9.95769316 5.5625 11.4375 C5.66691406 12.26121094 5.77132813 13.08492187 5.87890625 13.93359375 C5.91886719 14.61550781 5.95882813 15.29742187 6 16 C5 17 5 17 1.9375 17.0625 C0.968125 17.041875 -0.00125 17.02125 -1 17 C-1.02684679 14.35409986 -1.04676357 11.70846904 -1.0625 9.0625 C-1.07087891 8.30775391 -1.07925781 7.55300781 -1.08789062 6.77539062 C-1.09652441 4.85005687 -1.05224333 2.92464419 -1 1 C-0.67 0.67 -0.34 0.34 0 0 Z " fill="#1E1E1E" transform="translate(2,118)"/>
<path d="M0 0 C1.65 0 3.3 0 5 0 C5 1.65 5 3.3 5 5 C6.98 5 8.96 5 11 5 C11 6.98 11 8.96 11 11 C9.02 11 7.04 11 5 11 C5 9.35 5 7.7 5 6 C3.35 6 1.7 6 0 6 C-0.33 7.32 -0.66 8.64 -1 10 C-1.66 10 -2.32 10 -3 10 C-3.66 8.35 -4.32 6.7 -5 5 C-3.68 4.67 -2.36 4.34 -1 4 C-0.67 2.68 -0.34 1.36 0 0 Z " fill="#272727" transform="translate(214,62)"/>
<path d="M0 0 C1.65 0 3.3 0 5 0 C5.60579065 7.26948775 5.60579065 7.26948775 2.875 10.5625 C-0.61012162 12.30506081 -2.30689588 12.03063371 -6 11 C-6 9.35 -6 7.7 -6 6 C-4.35 5.67 -2.7 5.34 -1 5 C-0.67 3.35 -0.34 1.7 0 0 Z " fill="#272727" transform="translate(34,28)"/>
<path d="M0 0 C2.36557373 2.13300328 3.62967528 3.95949399 4.75 6.9375 C5.01296875 7.60652344 5.2759375 8.27554688 5.546875 8.96484375 C6.07046274 11.31647491 5.74954377 12.73617523 5 15 C5 14.01 5 13.02 5 12 C4.01 12 3.02 12 2 12 C2 10.02 2 8.04 2 6 C0.02 6 -1.96 6 -4 6 C-3.67 4.35 -3.34 2.7 -3 1 C-2.01 0.67 -1.02 0.34 0 0 Z M-7 6 C-6.01 6 -5.02 6 -4 6 C-3.875 8.875 -3.875 8.875 -4 12 C-4.66 12.66 -5.32 13.32 -6 14 C-6.66 11.69 -7.32 9.38 -8 7 C-7.67 6.67 -7.34 6.34 -7 6 Z " fill="#191919" transform="translate(144,95)"/>
<path d="M0 0 C1.98 0 3.96 0 6 0 C6 1.65 6 3.3 6 5 C4.02 5 2.04 5 0 5 C0 3.35 0 1.7 0 0 Z M-7 5 C-4.69 5 -2.38 5 0 5 C0 6.98 0 8.96 0 11 C1.98 11 3.96 11 6 11 C6 12.65 6 14.3 6 16 C2.54691313 14.48729451 0.04375621 12.45279358 -2.75 9.9375 C-3.54921875 9.22464844 -4.3484375 8.51179687 -5.171875 7.77734375 C-5.77515625 7.19082031 -6.3784375 6.60429687 -7 6 C-7 5.67 -7 5.34 -7 5 Z " fill="#181818" transform="translate(95,141)"/>
<path d="M0 0 C1.98 0 3.96 0 6 0 C6 1.98 6 3.96 6 6 C7.98 6 9.96 6 12 6 C11.67 7.65 11.34 9.3 11 11 C6.545 10.01 6.545 10.01 2 9 C2.33 8.34 2.66 7.68 3 7 C2.01 6.67 1.02 6.34 0 6 C0 4.02 0 2.04 0 0 Z " fill="#2D2D2D" transform="translate(123,163)"/>
<path d="M0 0 C1.98 0 3.96 0 6 0 C6.042721 1.66611905 6.04063832 3.33382885 6 5 C5 6 5 6 2.4375 6.0625 C1.2309375 6.0315625 1.2309375 6.0315625 0 6 C0 7.65 0 9.3 0 11 C-1.98 11 -3.96 11 -6 11 C-6 9.02 -6 7.04 -6 5 C-4.02 5 -2.04 5 0 5 C0 3.35 0 1.7 0 0 Z " fill="#262626" transform="translate(101,141)"/>
<path d="M0 0 C7.48291572 6.15034169 7.48291572 6.15034169 10 10 C9.67 10.66 9.34 11.32 9 12 C7.02 12 5.04 12 3 12 C3 10.35 3 8.7 3 7 C1.35 7 -0.3 7 -2 7 C-2 5.02 -2 3.04 -2 1 C-1.34 0.67 -0.68 0.34 0 0 Z " fill="#161616" transform="translate(92,123)"/>
<path d="M0 0 C1.65 0.33 3.3 0.66 5 1 C5.21931821 4.21666704 5.26828383 6.43362303 3.875 9.375 C2 11 2 11 -1.1875 11.25 C-2.115625 11.1675 -3.04375 11.085 -4 11 C-4.33 9.35 -4.66 7.7 -5 6 C-3.35 6 -1.7 6 0 6 C0 4.02 0 2.04 0 0 Z " fill="#222222" transform="translate(146,107)"/>
<path d="M0 0 C1.65 0 3.3 0 5 0 C5 1.65 5 3.3 5 5 C3.68 5.33 2.36 5.66 1 6 C0.67 7.65 0.34 9.3 0 11 C-1.98 11 -3.96 11 -6 11 C-6 9.02 -6 7.04 -6 5 C-4.02 5 -2.04 5 0 5 C0 3.35 0 1.7 0 0 Z " fill="#272727" transform="translate(62,79)"/>
<path d="M0 0 C-0.33 0.99 -0.66 1.98 -1 3 C-2.65 3 -4.3 3 -6 3 C-6 4.65 -6 6.3 -6 8 C-7.98 8 -9.96 8 -12 8 C-11.979375 7.21625 -11.95875 6.4325 -11.9375 5.625 C-11.81315937 3.01885039 -11.81315937 3.01885039 -13 1 C-11.58622218 0.63447197 -10.16879424 0.28304505 -8.75 -0.0625 C-7.96109375 -0.25972656 -7.1721875 -0.45695313 -6.359375 -0.66015625 C-3.89605178 -1.01497267 -2.34395868 -0.76877544 0 0 Z " fill="#1A1A1A" transform="translate(141,217)"/>
<path d="M0 0 C1.65 0 3.3 0 5 0 C5 1.98 5 3.96 5 6 C3.35 6 1.7 6 0 6 C0 7.65 0 9.3 0 11 C-1.98 11 -3.96 11 -6 11 C-6 9.35 -6 7.7 -6 6 C-4.35 5.67 -2.7 5.34 -1 5 C-0.67 3.35 -0.34 1.7 0 0 Z " fill="#272727" transform="translate(197,203)"/>
<path d="M0 0 C1.65 0 3.3 0 5 0 C5 1.98 5 3.96 5 6 C3.35 6 1.7 6 0 6 C-0.33 7.65 -0.66 9.3 -1 11 C-2.65 11 -4.3 11 -6 11 C-6.33 10.34 -6.66 9.68 -7 9 C-5 6 -5 6 -2.875 5.3125 C-2.25625 5.209375 -1.6375 5.10625 -1 5 C-0.67 3.35 -0.34 1.7 0 0 Z " fill="#272727" transform="translate(214,152)"/>
<path d="M0 0 C1.10844919 3.32534757 0.84454356 5.62182575 0 9 C-1.65 9 -3.3 9 -5 9 C-5.33 10.65 -5.66 12.3 -6 14 C-7.32 14 -8.64 14 -10 14 C-10 12.35 -10 10.7 -10 9 C-8.68 8.67 -7.36 8.34 -6 8 C-5.67 6.35 -5.34 4.7 -5 3 C-3.35 3 -1.7 3 0 3 C0 2.01 0 1.02 0 0 Z " fill="#303030" transform="translate(174,104)"/>
<path d="M0 0 C0.33 0 0.66 0 1 0 C1.57256004 3.92612596 1.74950876 5.91988086 -0.55859375 9.24609375 C-2.31655476 11.23043203 -4.10884918 13.14261973 -6 15 C-6.66 14.67 -7.32 14.34 -8 14 C-8 12.02 -8 10.04 -8 8 C-6.35 8 -4.7 8 -3 8 C-3 6.02 -3 4.04 -3 2 C-2.01 2 -1.02 2 0 2 C0 1.34 0 0.68 0 0 Z " fill="#161616" transform="translate(87,82)"/>
<path d="M0 0 C1.98 0 3.96 0 6 0 C6 1.65 6 3.3 6 5 C4.02 5 2.04 5 0 5 C0 3.35 0 1.7 0 0 Z M-4 5 C-2.68 5 -1.36 5 0 5 C0 6.98 0 8.96 0 11 C-1.65 11 -3.3 11 -5 11 C-5.042721 9.33388095 -5.04063832 7.66617115 -5 6 C-4.67 5.67 -4.34 5.34 -4 5 Z " fill="#191919" transform="translate(67,79)"/>
<path d="M0 0 C2.64 0.33 5.28 0.66 8 1 C7.67 2.32 7.34 3.64 7 5 C5.02 5 3.04 5 1 5 C0.67 3.35 0.34 1.7 0 0 Z M-3 5 C-1.68 5 -0.36 5 1 5 C1 6.98 1 8.96 1 11 C-0.65 11 -2.3 11 -4 11 C-4.042721 9.33388095 -4.04063832 7.66617115 -4 6 C-3.67 5.67 -3.34 5.34 -3 5 Z " fill="#2E2E2E" transform="translate(66,62)"/>
<path d="M0 0 C1.98 0 3.96 0 6 0 C6 1.65 6 3.3 6 5 C4.02 5 2.04 5 0 5 C0 3.35 0 1.7 0 0 Z M-4 5 C-2.68 5 -1.36 5 0 5 C0 6.98 0 8.96 0 11 C-1.65 11 -3.3 11 -5 11 C-5.042721 9.33388095 -5.04063832 7.66617115 -5 6 C-4.67 5.67 -4.34 5.34 -4 5 Z " fill="#191919" transform="translate(202,34)"/>
<path d="M0 0 C-1.32 0.33 -2.64 0.66 -4 1 C-4 1.99 -4 2.98 -4 4 C-5.65 4 -7.3 4 -9 4 C-9 5.65 -9 7.3 -9 9 C-9.99 9.495 -9.99 9.495 -11 10 C-13.625 9.0625 -13.625 9.0625 -16 8 C-15.04578192 6.85073734 -14.08647955 5.70569459 -13.125 4.5625 C-12.59132812 3.92441406 -12.05765625 3.28632813 -11.5078125 2.62890625 C-8.19008942 -0.95526609 -4.5936525 -0.07409117 0 0 Z " fill="#171717" transform="translate(144,137)"/>
<path d="M0 0 C0 1.32 0 2.64 0 4 C-1.32 4.33 -2.64 4.66 -4 5 C-4.33 6.65 -4.66 8.3 -5 10 C-6.670625 10.2165625 -6.670625 10.2165625 -8.375 10.4375 C-11.82142047 10.78372035 -11.82142047 10.78372035 -14 12 C-12.60609461 8.84280428 -10.96365028 6.7187347 -8.5 4.3125 C-7.8915625 3.71050781 -7.283125 3.10851562 -6.65625 2.48828125 C-4.24238386 0.31921757 -3.31382274 0 0 0 Z " fill="#151515" transform="translate(67,63)"/>
<path d="M0 0 C1.65 0 3.3 0 5 0 C5 1.65 5 3.3 5 5 C3.35 5.33 1.7 5.66 0 6 C0 8.31 0 10.62 0 13 C-3 11.1875 -3 11.1875 -6 9 C-6 8.01 -6 7.02 -6 6 C-4.35 5.67 -2.7 5.34 -1 5 C-0.67 3.35 -0.34 1.7 0 0 Z " fill="#282828" transform="translate(180,17)"/>
<path d="M0 0 C0.33 0 0.66 0 1 0 C1 6.93 1 13.86 1 21 C2.65 21 4.3 21 6 21 C6 22.98 6 24.96 6 27 C4.02 27 2.04 27 0 27 C0 18.09 0 9.18 0 0 Z " fill="#111111" transform="translate(219,97)"/>
<path d="M0 0 C1.65 0 3.3 0 5 0 C5 1.65 5 3.3 5 5 C3.68 5.33 2.36 5.66 1 6 C0.67 7.65 0.34 9.3 0 11 C-1.98 11 -3.96 11 -6 11 C-6 9.35 -6 7.7 -6 6 C-4.35 5.67 -2.7 5.34 -1 5 C-0.67 3.35 -0.34 1.7 0 0 Z " fill="#181818" transform="translate(197,17)"/>
<path d="M0 0 C1.98 0 3.96 0 6 0 C6 1.65 6 3.3 6 5 C4.02 5 2.04 5 0 5 C0 3.35 0 1.7 0 0 Z M0 5 C0 6.98 0 8.96 0 11 C-1.65 11 -3.3 11 -5 11 C-5 9.35 -5 7.7 -5 6 C-1.125 5 -1.125 5 0 5 Z " fill="#181818" transform="translate(140,141)"/>
<path d="M0 0 C0.66 0 1.32 0 2 0 C2 1.98 2 3.96 2 6 C3.98 6 5.96 6 8 6 C8 7.98 8 9.96 8 12 C5.125 12.125 5.125 12.125 2 12 C-0.79496066 9.20503934 -0.66104876 6.86404416 -1 3 C-0.67 2.01 -0.34 1.02 0 0 Z " fill="#262626" transform="translate(217,84)"/>
<path d="M0 0 C1.65 0 3.3 0 5 0 C5 1.65 5 3.3 5 5 C3.02 5 1.04 5 -1 5 C-0.67 3.35 -0.34 1.7 0 0 Z M-6 5 C-4.35 5 -2.7 5 -1 5 C-1 6.98 -1 8.96 -1 11 C-2.65 11 -4.3 11 -6 11 C-6 9.02 -6 7.04 -6 5 Z " fill="#181818" transform="translate(79,79)"/>
<path d="M0 0 C1.65 0 3.3 0 5 0 C5 1.65 5 3.3 5 5 C3.02 5 1.04 5 -1 5 C-0.67 3.35 -0.34 1.7 0 0 Z M-6 5 C-4.35 5 -2.7 5 -1 5 C-1 6.98 -1 8.96 -1 11 C-2.65 11 -4.3 11 -6 11 C-6 9.02 -6 7.04 -6 5 Z " fill="#181818" transform="translate(214,34)"/>
<path d="M0 0 C1.65 0 3.3 0 5 0 C5.33 1.98 5.66 3.96 6 6 C7.32 6 8.64 6 10 6 C10 7.65 10 9.3 10 11 C8.35 10.67 6.7 10.34 5 10 C5 8.68 5 7.36 5 6 C3.35 6 1.7 6 0 6 C0 4.02 0 2.04 0 0 Z " fill="#272727" transform="translate(12,28)"/>
<path d="M0 0 C1.98 0 3.96 0 6 0 C6 1.65 6 3.3 6 5 C4.02 5 2.04 5 0 5 C0 3.35 0 1.7 0 0 Z M0 5 C0 6.98 0 8.96 0 11 C-1.65 11 -3.3 11 -5 11 C-5 9.35 -5 7.7 -5 6 C-1.125 5 -1.125 5 0 5 Z " fill="#181818" transform="translate(185,17)"/>
<path d="M0 0 C1.65 0 3.3 0 5 0 C5 1.65 5 3.3 5 5 C3.02 5 1.04 5 -1 5 C-0.67 3.35 -0.34 1.7 0 0 Z M-6 5 C-4.35 5 -2.7 5 -1 5 C-1 6.98 -1 8.96 -1 11 C-2.65 11 -4.3 11 -6 11 C-6 9.02 -6 7.04 -6 5 Z " fill="#181818" transform="translate(214,0)"/>
<path d="M0 0 C1.65 0 3.3 0 5 0 C5 1.65 5 3.3 5 5 C3.02 5 1.04 5 -1 5 C-0.67 3.35 -0.34 1.7 0 0 Z M-6 5 C-4.35 5 -2.7 5 -1 5 C-1 6.98 -1 8.96 -1 11 C-2.65 11 -4.3 11 -6 11 C-6 9.02 -6 7.04 -6 5 Z " fill="#181818" transform="translate(169,0)"/>
<path d="M0 0 C1.65 0 3.3 0 5 0 C5 1.65 5 3.3 5 5 C3.02 5 1.04 5 -1 5 C-0.67 3.35 -0.34 1.7 0 0 Z M-6 5 C-4.35 5 -2.7 5 -1 5 C-1 6.98 -1 8.96 -1 11 C-2.65 11 -4.3 11 -6 11 C-6 9.02 -6 7.04 -6 5 Z " fill="#181818" transform="translate(34,0)"/>
<path d="M0 0 C1.65 0 3.3 0 5 0 C5 1.65 5 3.3 5 5 C4.38125 5.061875 3.7625 5.12375 3.125 5.1875 C0.72238859 5.828919 0.72238859 5.828919 -0.25 8.5625 C-0.4975 9.366875 -0.745 10.17125 -1 11 C-2.65 11 -4.3 11 -6 11 C-6 9.35 -6 7.7 -6 6 C-4.35 5.67 -2.7 5.34 -1 5 C-0.67 3.35 -0.34 1.7 0 0 Z " fill="#181818" transform="translate(197,186)"/>
<path d="M0 0 C0.99 0 1.98 0 3 0 C2.48041715 4.37934119 1.94324258 8.68803391 1 13 C-1.97 12.505 -1.97 12.505 -5 12 C-5 10.02 -5 8.04 -5 6 C-3.35 6 -1.7 6 0 6 C0 4.02 0 2.04 0 0 Z " fill="#171717" transform="translate(6,84)"/>
<path d="M0 0 C2.475 0.99 2.475 0.99 5 2 C5 3.65 5 5.3 5 7 C6.98 7 8.96 7 11 7 C11 8.98 11 10.96 11 13 C10.34 13 9.68 13 9 13 C8.67 13.66 8.34 14.32 8 15 C6.66121428 12.8782637 5.32884524 10.75294812 4 8.625 C3.6184375 8.02171875 3.236875 7.4184375 2.84375 6.796875 C0 2.2265625 0 2.2265625 0 0 Z " fill="#191919" transform="translate(152,83)"/>
<path d="M0 0 C1.32 0 2.64 0 4 0 C4 1.65 4 3.3 4 5 C2.35 5 0.7 5 -1 5 C-0.67 3.35 -0.34 1.7 0 0 Z M-6 5 C-4.35 5 -2.7 5 -1 5 C-1 6.98 -1 8.96 -1 11 C-2.65 11 -4.3 11 -6 11 C-6 9.02 -6 7.04 -6 5 Z " fill="#191919" transform="translate(18,175)"/>
<path d="M0 0 C0 1.65 0 3.3 0 5 C-1.65 5 -3.3 5 -5 5 C-5 6.65 -5 8.3 -5 10 C-6.65 10.33 -8.3 10.66 -10 11 C-9.38348417 9.3509698 -8.75652258 7.70584159 -8.125 6.0625 C-7.77695313 5.14597656 -7.42890625 4.22945312 -7.0703125 3.28515625 C-5.32410105 -0.44306894 -4.16160403 0 0 0 Z " fill="#181818" transform="translate(219,147)"/>
<path d="M0 0 C1.98 0 3.96 0 6 0 C6 1.65 6 3.3 6 5 C4.02 5 2.04 5 0 5 C0 3.35 0 1.7 0 0 Z M0 5 C0 6.98 0 8.96 0 11 C-1.32 11 -2.64 11 -4 11 C-4 9.35 -4 7.7 -4 6 C-1 5 -1 5 0 5 Z " fill="#272727" transform="translate(22,17)"/>
<path d="M0 0 C1.32 1.32 2.64 2.64 4 4 C3.67 4.66 3.34 5.32 3 6 C2.01 6.33 1.02 6.66 0 7 C-0.12375 7.639375 -0.2475 8.27875 -0.375 8.9375 C-0.58125 9.618125 -0.7875 10.29875 -1 11 C-3.5625 12.25 -3.5625 12.25 -6 13 C-7.04449911 9.86650268 -6.93423645 9.01031744 -6 6 C-4.35 6 -2.7 6 -1 6 C-1.020625 5.195625 -1.04125 4.39125 -1.0625 3.5625 C-1 1 -1 1 0 0 Z " fill="#292929" transform="translate(141,90)"/>
<path d="M0 0 C1.32 0 2.64 0 4 0 C4 1.98 4 3.96 4 6 C5.65 6 7.3 6 9 6 C9 7.65 9 9.3 9 11 C7.68 11.33 6.36 11.66 5 12 C4.15885829 10.56705502 3.32734313 9.12845595 2.5 7.6875 C1.80390625 6.48673828 1.80390625 6.48673828 1.09375 5.26171875 C0 3 0 3 0 0 Z " fill="#282828" transform="translate(58,107)"/>
<path d="M0 0 C3.87511727 0.54984772 5.59576506 2.27555331 8.25 5.0625 C8.95640625 5.79597656 9.6628125 6.52945313 10.390625 7.28515625 C10.92171875 7.85105469 11.4528125 8.41695312 12 9 C11.34 9.66 10.68 10.32 10 11 C7.875 10.625 7.875 10.625 6 10 C5.67 8.68 5.34 7.36 5 6 C3.35 5.67 1.7 5.34 0 5 C0 3.35 0 1.7 0 0 Z " fill="#282828" transform="translate(28,181)"/>
<path d="M0 0 C1.65 0 3.3 0 5 0 C5 1.65 5 3.3 5 5 C6.65 5 8.3 5 10 5 C10.33 6.65 10.66 8.3 11 10 C9.34418275 9.29379845 7.70048614 8.55912762 6.0625 7.8125 C5.14597656 7.40644531 4.22945313 7.00039062 3.28515625 6.58203125 C1 5 1 5 0.18359375 2.32421875 C0.12300781 1.55722656 0.06242187 0.79023438 0 0 Z " fill="#272727" transform="translate(107,158)"/>
<path d="M0 0 C0 0.33 0 0.66 0 1 C-1.65 1 -3.3 1 -5 1 C-5 2.65 -5 4.3 -5 6 C-6.98 6 -8.96 6 -11 6 C-11 4.02 -11 2.04 -11 0 C-7.07632508 -2.82504594 -4.32061114 -1.49559616 0 0 Z " fill="#191919" transform="translate(123,146)"/>
<path d="M0 0 C1.98 0 3.96 0 6 0 C6 1.65 6 3.3 6 5 C7.98 5 9.96 5 12 5 C12 5.33 12 5.66 12 6 C6.72 6 1.44 6 -4 6 C-2.68 5.67 -1.36 5.34 0 5 C0 3.35 0 1.7 0 0 Z " fill="#131313" transform="translate(101,0)"/>
<path d="M0 0 C1.9375 0.3125 1.9375 0.3125 4 1 C4.33 1.99 4.66 2.98 5 4 C3.35 4 1.7 4 0 4 C0 2.68 0 1.36 0 0 Z M-4 4 C-2.68 4 -1.36 4 0 4 C0 5.98 0 7.96 0 10 C-1.65 10 -3.3 10 -5 10 C-5.042721 8.33388095 -5.04063832 6.66617115 -5 5 C-4.67 4.67 -4.34 4.34 -4 4 Z " fill="#272727" transform="translate(112,142)"/>
<path d="M0 0 C2.98052395 2.55473482 4.46340188 5.41460439 6 9 C6 10.32 6 11.64 6 13 C5.34 13 4.68 13 4 13 C3.67 11.02 3.34 9.04 3 7 C1.35 7 -0.3 7 -2 7 C-2 5.02 -2 3.04 -2 1 C-1.34 0.67 -0.68 0.34 0 0 Z " fill="#161616" transform="translate(165,83)"/>
<path d="M0 0 C1.32 0.66 2.64 1.32 4 2 C3.67 2.99 3.34 3.98 3 5 C2.01 5 1.02 5 0 5 C-0.33 6.65 -0.66 8.3 -1 10 C-2.65 10 -4.3 10 -6 10 C-6 8.35 -6 6.7 -6 5 C-4.35 4.67 -2.7 4.34 -1 4 C-0.67 2.68 -0.34 1.36 0 0 Z " fill="#292929" transform="translate(79,108)"/>
<path d="M0 0 C1.32 0.66 2.64 1.32 4 2 C3.360625 2.226875 2.72125 2.45375 2.0625 2.6875 C-0.27193661 3.85250896 -0.27193661 3.85250896 -0.75 6.625 C-0.8325 7.40875 -0.915 8.1925 -1 9 C-2.98 9 -4.96 9 -7 9 C-7 7.35 -7 5.7 -7 4 C-5.824375 3.8453125 -5.824375 3.8453125 -4.625 3.6875 C-1.66954819 3.22404978 -1.66954819 3.22404978 0 0 Z " fill="#171717" transform="translate(153,143)"/>
<path d="M0 0 C-0.99 0.33 -1.98 0.66 -3 1 C-3 2.65 -3 4.3 -3 6 C-4.98 6 -6.96 6 -9 6 C-9 4.02 -9 2.04 -9 0 C-5.93109813 -1.53445094 -3.29905734 -0.54984289 0 0 Z " fill="#272727" transform="translate(132,219)"/>
<path d="M0 0 C1.98 0 3.96 0 6 0 C6 1.65 6 3.3 6 5 C6.66 5.33 7.32 5.66 8 6 C4.04 6 0.08 6 -4 6 C-2.68 5.67 -1.36 5.34 0 5 C0 3.35 0 1.7 0 0 Z " fill="#2D2D2D" transform="translate(140,169)"/>
<path d="M0 0 C3.75 0.1875 3.75 0.1875 7 1 C7 2.65 7 4.3 7 6 C5 7 5 7 2.9375 6.75 C2.298125 6.5025 1.65875 6.255 1 6 C0.67 5.01 0.34 4.02 0 3 C-1.98 3.99 -1.98 3.99 -4 5 C-2.4375 2.4375 -2.4375 2.4375 0 0 Z " fill="#2A2A2A" transform="translate(190,185)"/>
<path d="M0 0 C0.33 0 0.66 0 1 0 C1 1.65 1 3.3 1 5 C2.65 5 4.3 5 6 5 C6 6.98 6 8.96 6 11 C4.68 11 3.36 11 2 11 C1.67 11.66 1.34 12.32 1 13 C0.1276588 10.00519083 -0.10829766 7.36424089 -0.0625 4.25 C-0.05347656 3.45078125 -0.04445312 2.6515625 -0.03515625 1.828125 C-0.02355469 1.22484375 -0.01195312 0.6215625 0 0 Z " fill="#131313" transform="translate(50,79)"/>
<path d="M0 0 C1.65 0 3.3 0 5 0 C5 1.98 5 3.96 5 6 C3.35 6 1.7 6 0 6 C0 6.99 0 7.98 0 9 C-1.32 8.34 -2.64 7.68 -4 7 C-3.01 6.34 -2.02 5.68 -1 5 C-0.27034634 2.43717258 -0.27034634 2.43717258 0 0 Z " fill="#181818" transform="translate(107,152)"/>
<path d="M0 0 C0.99 0.33 1.98 0.66 3 1 C3 3.31 3 5.62 3 8 C1.02 8 -0.96 8 -3 8 C-3 6.02 -3 4.04 -3 2 C-2.01 2 -1.02 2 0 2 C0 1.34 0 0.68 0 0 Z " fill="#262626" transform="translate(132,54)"/>
<path d="M0 0 C1.98 0 3.96 0 6 0 C6.042721 1.66611905 6.04063832 3.33382885 6 5 C5 6 5 6 2.4375 6.0625 C1.2309375 6.0315625 1.2309375 6.0315625 0 6 C-0.33 6.66 -0.66 7.32 -1 8 C-1.33 7.01 -1.66 6.02 -2 5 C-1.34 5 -0.68 5 0 5 C0 3.35 0 1.7 0 0 Z " fill="#191919" transform="translate(174,17)"/>
<path d="M0 0 C1.98 0 3.96 0 6 0 C6.66 2.64 7.32 5.28 8 8 C4.22454612 6.90931332 1.52956528 6.0916909 -1 3 C-0.67 2.01 -0.34 1.02 0 0 Z " fill="#191919" transform="translate(157,11)"/>
<path d="M0 0 C1.98 0 3.96 0 6 0 C5.67 2.64 5.34 5.28 5 8 C2 7 2 7 -1 5 C-0.67 3.35 -0.34 1.7 0 0 Z " fill="#2B2B2B" transform="translate(129,0)"/>
<path d="M0 0 C0.66 0.66 1.32 1.32 2 2 C1.34 2 0.68 2 0 2 C0 3.65 0 5.3 0 7 C-1.98 7 -3.96 7 -6 7 C-6 5.02 -6 3.04 -6 1 C-3.125 0.375 -3.125 0.375 0 0 Z " fill="#191919" transform="translate(28,179)"/>
<path d="M0 0 C1.4540625 0.0309375 1.4540625 0.0309375 2.9375 0.0625 C2.9375 2.0425 2.9375 4.0225 2.9375 6.0625 C0.9575 6.0625 -1.0225 6.0625 -3.0625 6.0625 C-3.44468767 4.40635343 -3.77645102 2.73792976 -4.0625 1.0625 C-3.0625 0.0625 -3.0625 0.0625 0 0 Z " fill="#2A2A2A" transform="translate(222.0625,123.9375)"/>
<path d="M0 0 C1.66611905 -0.042721 3.33382885 -0.04063832 5 0 C6 1 6 1 6.0625 3.5625 C6.041875 4.366875 6.02125 5.17125 6 6 C4.35 6.66 2.7 7.32 1 8 C-0.42944945 5.64561267 -1.08661261 4.51967567 -0.625 1.75 C-0.41875 1.1725 -0.2125 0.595 0 0 Z " fill="#252525" transform="translate(67,118)"/>
<path d="M0 0 C-1.875 4.875 -1.875 4.875 -3 6 C-4.66617115 6.04063832 -6.33388095 6.042721 -8 6 C-8 4.02 -8 2.04 -8 0 C-2.25 -1.125 -2.25 -1.125 0 0 Z " fill="#1A1A1A" transform="translate(81,107)"/>
<path d="M0 0 C1.65 0 3.3 0 5 0 C5.33 1.65 5.66 3.3 6 5 C4.35 5.33 2.7 5.66 1 6 C1 8.31 1 10.62 1 13 C0.67 13 0.34 13 0 13 C0 8.71 0 4.42 0 0 Z " fill="#111111" transform="translate(163,107)"/>
<path d="M0 0 C1.98 0 3.96 0 6 0 C6.33 2.31 6.66 4.62 7 7 C4.69 6.67 2.38 6.34 0 6 C0 4.02 0 2.04 0 0 Z " fill="#191919" transform="translate(56,11)"/>
<path d="M0 0 C1.98 0 3.96 0 6 0 C6 1.98 6 3.96 6 6 C4.02 6 2.04 6 0 6 C0 4.02 0 2.04 0 0 Z " fill="#262626" transform="translate(219,214)"/>
<path d="M0 0 C1.98 0 3.96 0 6 0 C6 1.98 6 3.96 6 6 C4.02 6 2.04 6 0 6 C0 4.02 0 2.04 0 0 Z " fill="#262626" transform="translate(185,214)"/>
<path d="M0 0 C1.98 0 3.96 0 6 0 C6 1.98 6 3.96 6 6 C4.02 6 2.04 6 0 6 C0 4.02 0 2.04 0 0 Z " fill="#1A1A1A" transform="translate(157,214)"/>
<path d="M0 0 C1.98 0 3.96 0 6 0 C6 1.98 6 3.96 6 6 C4.02 6 2.04 6 0 6 C0 4.02 0 2.04 0 0 Z " fill="#1A1A1A" transform="translate(67,214)"/>
<path d="M0 0 C1.98 0 3.96 0 6 0 C6 1.98 6 3.96 6 6 C4.02 6 2.04 6 0 6 C0 4.02 0 2.04 0 0 Z " fill="#262626" transform="translate(50,214)"/>
<path d="M0 0 C1.98 0 3.96 0 6 0 C6 1.98 6 3.96 6 6 C4.02 6 2.04 6 0 6 C0 4.02 0 2.04 0 0 Z " fill="#262626" transform="translate(6,214)"/>
<path d="M0 0 C1.98 0 3.96 0 6 0 C6 1.98 6 3.96 6 6 C4.02 6 2.04 6 0 6 C0 4.02 0 2.04 0 0 Z " fill="#262626" transform="translate(174,203)"/>
<path d="M0 0 C1.98 0 3.96 0 6 0 C6 1.98 6 3.96 6 6 C4.02 6 2.04 6 0 6 C0 4.02 0 2.04 0 0 Z " fill="#262626" transform="translate(39,203)"/>
<path d="M0 0 C1.98 0 3.96 0 6 0 C6 1.98 6 3.96 6 6 C4.02 6 2.04 6 0 6 C0 4.02 0 2.04 0 0 Z " fill="#1A1A1A" transform="translate(22,203)"/>
<path d="M0 0 C1.98 0 3.96 0 6 0 C6 1.98 6 3.96 6 6 C4.02 6 2.04 6 0 6 C0 4.02 0 2.04 0 0 Z " fill="#262626" transform="translate(219,180)"/>
<path d="M0 0 C1.98 0 3.96 0 6 0 C6 1.98 6 3.96 6 6 C4.02 6 2.04 6 0 6 C0 4.02 0 2.04 0 0 Z " fill="#1A1A1A" transform="translate(202,180)"/>
<path d="M0 0 C1.98 0 3.96 0 6 0 C6 1.98 6 3.96 6 6 C4.02 6 2.04 6 0 6 C0 4.02 0 2.04 0 0 Z " fill="#262626" transform="translate(6,180)"/>
<path d="M0 0 C1.98 0 3.96 0 6 0 C6 1.98 6 3.96 6 6 C4.02 6 2.04 6 0 6 C0 4.02 0 2.04 0 0 Z " fill="#1A1A1A" transform="translate(219,163)"/>
<path d="M0 0 C1.98 0 3.96 0 6 0 C6 1.98 6 3.96 6 6 C4.02 6 2.04 6 0 6 C0 4.02 0 2.04 0 0 Z " fill="#262626" transform="translate(123,163)"/>
<path d="M0 0 C1.98 0 3.96 0 6 0 C6 1.98 6 3.96 6 6 C4.02 6 2.04 6 0 6 C0 4.02 0 2.04 0 0 Z " fill="#262626" transform="translate(146,152)"/>
<path d="M0 0 C1.98 0 3.96 0 6 0 C6 1.98 6 3.96 6 6 C4.02 6 2.04 6 0 6 C0 4.02 0 2.04 0 0 Z " fill="#262626" transform="translate(112,152)"/>
<path d="M0 0 C1.98 0 3.96 0 6 0 C6 1.65 6 3.3 6 5 C4.35 5.66 2.7 6.32 1 7 C0 6 0 6 -0.0625 2.9375 C-0.041875 1.968125 -0.02125 0.99875 0 0 Z " fill="#262626" transform="translate(101,152)"/>
<path d="M0 0 C1.98 0 3.96 0 6 0 C6 1.98 6 3.96 6 6 C4.02 6 2.04 6 0 6 C0 4.02 0 2.04 0 0 Z " fill="#272727" transform="translate(95,135)"/>
<path d="M0 0 C1.98 0 3.96 0 6 0 C6 1.98 6 3.96 6 6 C4.02 6 2.04 6 0 6 C0 4.02 0 2.04 0 0 Z " fill="#272727" transform="translate(84,124)"/>
<path d="M0 0 C1.98 0 3.96 0 6 0 C6 1.98 6 3.96 6 6 C4.02 6 2.04 6 0 6 C0 4.02 0 2.04 0 0 Z " fill="#262626" transform="translate(67,107)"/>
<path d="M0 0 C1.98 0 3.96 0 6 0 C6 1.98 6 3.96 6 6 C4.02 6 2.04 6 0 6 C0 4.02 0 2.04 0 0 Z " fill="#272727" transform="translate(140,101)"/>
<path d="M0 0 C1.98 0 3.96 0 6 0 C6 1.98 6 3.96 6 6 C4.02 6 2.04 6 0 6 C0 4.02 0 2.04 0 0 Z " fill="#272727" transform="translate(157,84)"/>
<path d="M0 0 C1.98 0 3.96 0 6 0 C6 1.98 6 3.96 6 6 C4.02 6 2.04 6 0 6 C0 4.02 0 2.04 0 0 Z " fill="#272727" transform="translate(67,84)"/>
<path d="M0 0 C1.98 0 3.96 0 6 0 C6 1.65 6 3.3 6 5 C4.68 5 3.36 5 2 5 C2 5.66 2 6.32 2 7 C1.01 7 0.02 7 -1 7 C-0.67 4.69 -0.34 2.38 0 0 Z " fill="#181818" transform="translate(112,79)"/>
<path d="M0 0 C1.98 0 3.96 0 6 0 C6 1.98 6 3.96 6 6 C4.02 6 2.04 6 0 6 C0 4.02 0 2.04 0 0 Z " fill="#262626" transform="translate(219,45)"/>
<path d="M0 0 C1.98 0 3.96 0 6 0 C6 1.98 6 3.96 6 6 C4.02 6 2.04 6 0 6 C0 4.02 0 2.04 0 0 Z " fill="#1A1A1A" transform="translate(219,39)"/>
<path d="M0 0 C1.98 0 3.96 0 6 0 C6 1.98 6 3.96 6 6 C4.02 6 2.04 6 0 6 C0 4.02 0 2.04 0 0 Z " fill="#272727" transform="translate(202,39)"/>
<path d="M0 0 C1.98 0 3.96 0 6 0 C6 1.98 6 3.96 6 6 C4.02 6 2.04 6 0 6 C0 4.02 0 2.04 0 0 Z " fill="#272727" transform="translate(22,39)"/>
<path d="M0 0 C1.98 0 3.96 0 6 0 C6 1.98 6 3.96 6 6 C4.02 6 2.04 6 0 6 C0 4.02 0 2.04 0 0 Z " fill="#262626" transform="translate(22,28)"/>
<path d="M0 0 C1.98 0 3.96 0 6 0 C6 1.98 6 3.96 6 6 C4.02 6 2.04 6 0 6 C0 4.02 0 2.04 0 0 Z " fill="#1A1A1A" transform="translate(6,28)"/>
<path d="M0 0 C1.98 0 3.96 0 6 0 C6 1.98 6 3.96 6 6 C4.02 6 2.04 6 0 6 C0 4.02 0 2.04 0 0 Z " fill="#272727" transform="translate(219,11)"/>
<path d="M0 0 C1.98 0 3.96 0 6 0 C6 1.98 6 3.96 6 6 C4.02 6 2.04 6 0 6 C0 4.02 0 2.04 0 0 Z " fill="#191919" transform="translate(202,11)"/>
<path d="M0 0 C1.98 0 3.96 0 6 0 C6 1.98 6 3.96 6 6 C4.02 6 2.04 6 0 6 C0 4.02 0 2.04 0 0 Z " fill="#272727" transform="translate(50,11)"/>
<path d="M0 0 C1.98 0 3.96 0 6 0 C6 1.98 6 3.96 6 6 C4.02 6 2.04 6 0 6 C0 4.02 0 2.04 0 0 Z " fill="#272727" transform="translate(39,11)"/>
<path d="M0 0 C1.98 0 3.96 0 6 0 C6 1.98 6 3.96 6 6 C4.02 6 2.04 6 0 6 C0 4.02 0 2.04 0 0 Z " fill="#272727" transform="translate(6,11)"/>
<path d="M0 0 C1.98 0 3.96 0 6 0 C6 1.98 6 3.96 6 6 C4.02 6 2.04 6 0 6 C0 4.02 0 2.04 0 0 Z " fill="#272727" transform="translate(202,5)"/>
<path d="M0 0 C1.98 0 3.96 0 6 0 C6 1.98 6 3.96 6 6 C4.02 6 2.04 6 0 6 C0 4.02 0 2.04 0 0 Z " fill="#1A1A1A" transform="translate(50,5)"/>
<path d="M0 0 C1.98 0 3.96 0 6 0 C6 1.98 6 3.96 6 6 C4.02 6 2.04 6 0 6 C0 4.02 0 2.04 0 0 Z " fill="#272727" transform="translate(22,5)"/>
<path d="M0 0 C1.98 0 3.96 0 6 0 C6 1.98 6 3.96 6 6 C4.02 6 2.04 6 0 6 C0 4.02 0 2.04 0 0 Z " fill="#1A1A1A" transform="translate(6,5)"/>
<path d="M0 0 C1.98 0 3.96 0 6 0 C6.042721 1.66611905 6.04063832 3.33382885 6 5 C5 6 5 6 2.4375 6.0625 C1.2309375 6.0315625 1.2309375 6.0315625 0 6 C0 4.02 0 2.04 0 0 Z " fill="#1A1A1A" transform="translate(191,203)"/>
<path d="M0 0 C1.98 0 3.96 0 6 0 C6 1.98 6 3.96 6 6 C4.33388095 6.042721 2.66617115 6.04063832 1 6 C0 5 0 5 -0.0625 2.4375 C-0.041875 1.633125 -0.02125 0.82875 0 0 Z " fill="#272727" transform="translate(185,203)"/>
<path d="M0 0 C1.66611905 -0.042721 3.33382885 -0.04063832 5 0 C6 1 6 1 6.0625 3.5625 C6.041875 4.366875 6.02125 5.17125 6 6 C4.02 6 2.04 6 0 6 C0 4.02 0 2.04 0 0 Z " fill="#1A1A1A" transform="translate(6,163)"/>
<path d="M0 0 C0.33 0 0.66 0 1 0 C1 3.3 1 6.6 1 10 C-0.98 10 -2.96 10 -5 10 C-5 8.35 -5 6.7 -5 5 C-3.35 5 -1.7 5 0 5 C0 3.35 0 1.7 0 0 Z " fill="#131313" transform="translate(174,108)"/>
<path d="M0 0 C1.98 0 3.96 0 6 0 C6 1.98 6 3.96 6 6 C4.33388095 6.042721 2.66617115 6.04063832 1 6 C0 5 0 5 -0.0625 2.4375 C-0.041875 1.633125 -0.02125 0.82875 0 0 Z " fill="#1A1A1A" transform="translate(67,90)"/>
<path d="M0 0 C1.98 0 3.96 0 6 0 C6 1.98 6 3.96 6 6 C4.33388095 6.042721 2.66617115 6.04063832 1 6 C0 5 0 5 -0.0625 2.4375 C-0.041875 1.633125 -0.02125 0.82875 0 0 Z " fill="#1A1A1A" transform="translate(202,45)"/>
<path d="M0 0 C1.98 0 3.96 0 6 0 C6.042721 1.66611905 6.04063832 3.33382885 6 5 C5 6 5 6 2.4375 6.0625 C1.2309375 6.0315625 1.2309375 6.0315625 0 6 C0 4.02 0 2.04 0 0 Z " fill="#191919" transform="translate(191,11)"/>
<path d="M0 0 C2 2 2 2 2.125 4.625 C2.08375 5.40875 2.0425 6.1925 2 7 C0.02 7 -1.96 7 -4 7 C-4 5.35 -4 3.7 -4 2 C-2.68 1.34 -1.36 0.68 0 0 Z " fill="#272727" transform="translate(161,207)"/>
<path d="M0 0 C1.98 0 3.96 0 6 0 C6.33 1.98 6.66 3.96 7 6 C2.545 5.01 2.545 5.01 -2 4 C-1.34 3.67 -0.68 3.34 0 3 C0 2.01 0 1.02 0 0 Z " fill="#181818" transform="translate(140,5)"/>
<path d="M0 0 C0.33 0 0.66 0 1 0 C1 2.64 1 5.28 1 8 C-0.98 8 -2.96 8 -5 8 C-5 6.35 -5 4.7 -5 3 C-3.35 3 -1.7 3 0 3 C0 2.01 0 1.02 0 0 Z " fill="#272727" transform="translate(61,206)"/>
<path d="M0 0 C1.65 0 3.3 0 5 0 C5 1.65 5 3.3 5 5 C3.02 5.99 3.02 5.99 1 7 C0.34 6.34 -0.32 5.68 -1 5 C-0.625 2.375 -0.625 2.375 0 0 Z " fill="#282828" transform="translate(141,68)"/>
<path d="M0 0 C-0.66 0 -1.32 0 -2 0 C-2 1.65 -2 3.3 -2 5 C-3.98 5 -5.96 5 -8 5 C-8 3.35 -8 1.7 -8 0 C-4.71303767 -0.79953138 -3.28976808 -1.09658936 0 0 Z " fill="#2F2F2F" transform="translate(120,51)"/>
<path d="M0 0 C1.98 0 3.96 0 6 0 C6 1.65 6 3.3 6 5 C3.69 5.33 1.38 5.66 -1 6 C-0.67 4.02 -0.34 2.04 0 0 Z " fill="#1A1A1A" transform="translate(191,34)"/>
<path d="M0 0 C1.98 0 3.96 0 6 0 C6 1.65 6 3.3 6 5 C3.69 5.33 1.38 5.66 -1 6 C-0.67 4.02 -0.34 2.04 0 0 Z " fill="#272727" transform="translate(95,0)"/>
<path d="M0 0 C0 1.98 0 3.96 0 6 C-2.49092811 7.24546405 -3.41080733 6.7767578 -6 6 C-6 4.35 -6 2.7 -6 1 C-1.125 0 -1.125 0 0 0 Z " fill="#272727" transform="translate(225,191)"/>
<path d="M0 0 C1.65 0 3.3 0 5 0 C5.38218767 1.65614657 5.71395102 3.32457024 6 5 C5 6 5 6 2.4375 6.0625 C1.2309375 6.0315625 1.2309375 6.0315625 0 6 C0 4.02 0 2.04 0 0 Z " fill="#191919" transform="translate(12,203)"/>
<path d="M0 0 C0.33 0 0.66 0 1 0 C0.51171875 6.0546875 0.51171875 6.0546875 0 8 C-0.99 8.66 -1.98 9.32 -3 10 C-3.66 9.67 -4.32 9.34 -5 9 C-5 7.35 -5 5.7 -5 4 C-3.35 4 -1.7 4 0 4 C0 2.68 0 1.36 0 0 Z " fill="#161616" transform="translate(162,154)"/>
<path d="M0 0 C1.98 0 3.96 0 6 0 C5.67 1.98 5.34 3.96 5 6 C3.35 6 1.7 6 0 6 C0 4.02 0 2.04 0 0 Z " fill="#2B2B2B" transform="translate(157,152)"/>
<path d="M0 0 C1.98 0 3.96 0 6 0 C6 1.65 6 3.3 6 5 C3.50907189 6.24546405 2.58919267 5.7767578 0 5 C0 3.35 0 1.7 0 0 Z " fill="#191919" transform="translate(219,141)"/>
<path d="M0 0 C2 2 2 2 2.125 5.125 C2.08375 6.07375 2.0425 7.0225 2 8 C0.35 8 -1.3 8 -3 8 C-3 6.35 -3 4.7 -3 3 C-2.01 2.67 -1.02 2.34 0 2 C0 1.34 0 0.68 0 0 Z " fill="#151515" transform="translate(172,99)"/>
<path d="M0 0 C1.65 0 3.3 0 5 0 C5.38218767 1.65614657 5.71395102 3.32457024 6 5 C5 6 5 6 2.4375 6.0625 C1.2309375 6.0315625 1.2309375 6.0315625 0 6 C0 4.02 0 2.04 0 0 Z " fill="#191919" transform="translate(73,73)"/>
<path d="M0 0 C0 1.98 0 3.96 0 6 C-1.98 6 -3.96 6 -6 6 C-6 4.35 -6 2.7 -6 1 C-1.125 0 -1.125 0 0 0 Z " fill="#181818" transform="translate(152,67)"/>
<path d="M0 0 C1.98 0 3.96 0 6 0 C6 1.65 6 3.3 6 5 C3.50907189 6.24546405 2.58919267 5.7767578 0 5 C0 3.35 0 1.7 0 0 Z " fill="#191919" transform="translate(219,62)"/>
<path d="M0 0 C1.65 0 3.3 0 5 0 C5 1.98 5 3.96 5 6 C3.35 6 1.7 6 0 6 C0 4.02 0 2.04 0 0 Z " fill="#262626" transform="translate(118,56)"/>
<path d="M0 0 C-0.99 1.98 -1.98 3.96 -3 6 C-4.65 6 -6.3 6 -8 6 C-8 3 -8 3 -6.8125 1.3125 C-4.44258278 -0.40364695 -2.85974334 -0.23187108 0 0 Z " fill="#292929" transform="translate(110,50)"/>
<path d="M0 0 C1.65 0 3.3 0 5 0 C5.38218767 1.65614657 5.71395102 3.32457024 6 5 C5 6 5 6 2.4375 6.0625 C1.2309375 6.0315625 1.2309375 6.0315625 0 6 C0 4.02 0 2.04 0 0 Z " fill="#191919" transform="translate(12,45)"/>
<path d="M0 0 C1.65 0 3.3 0 5 0 C5.38218767 1.65614657 5.71395102 3.32457024 6 5 C5 6 5 6 2.4375 6.0625 C1.2309375 6.0315625 1.2309375 6.0315625 0 6 C0 4.02 0 2.04 0 0 Z " fill="#191919" transform="translate(208,28)"/>
<path d="M0 0 C1.65 0 3.3 0 5 0 C5.38218767 1.65614657 5.71395102 3.32457024 6 5 C5 6 5 6 2.4375 6.0625 C1.2309375 6.0315625 1.2309375 6.0315625 0 6 C0 4.02 0 2.04 0 0 Z " fill="#191919" transform="translate(28,28)"/>
<path d="M0 0 C0 1.98 0 3.96 0 6 C-1.98 6 -3.96 6 -6 6 C-6 4.35 -6 2.7 -6 1 C-1.125 0 -1.125 0 0 0 Z " fill="#272727" transform="translate(225,22)"/>
<path d="M0 0 C1.98 0 3.96 0 6 0 C6 1.65 6 3.3 6 5 C3.50907189 6.24546405 2.58919267 5.7767578 0 5 C0 3.35 0 1.7 0 0 Z " fill="#191919" transform="translate(219,17)"/>
<path d="M0 0 C1.98 0 3.96 0 6 0 C6 1.65 6 3.3 6 5 C3.50907189 6.24546405 2.58919267 5.7767578 0 5 C0 3.35 0 1.7 0 0 Z " fill="#191919" transform="translate(39,17)"/>
<path d="M0 0 C1.65 0 3.3 0 5 0 C5.33 1.65 5.66 3.3 6 5 C4.35 5.66 2.7 6.32 1 7 C0 6 0 6 -0.0625 2.9375 C-0.041875 1.968125 -0.02125 0.99875 0 0 Z " fill="#292929" transform="translate(62,11)"/>
<path d="M0 0 C1.98 0 3.96 0 6 0 C6 1.65 6 3.3 6 5 C4.02 5 2.04 5 0 5 C0 3.35 0 1.7 0 0 Z " fill="#191919" transform="translate(219,220)"/>
<path d="M0 0 C1.98 0 3.96 0 6 0 C6 1.65 6 3.3 6 5 C4.02 5 2.04 5 0 5 C0 3.35 0 1.7 0 0 Z " fill="#272727" transform="translate(191,220)"/>
<path d="M0 0 C1.98 0 3.96 0 6 0 C6 1.65 6 3.3 6 5 C4.02 5 2.04 5 0 5 C0 3.35 0 1.7 0 0 Z " fill="#272727" transform="translate(157,220)"/>
<path d="M0 0 C1.98 0 3.96 0 6 0 C6 1.65 6 3.3 6 5 C4.02 5 2.04 5 0 5 C0 3.35 0 1.7 0 0 Z " fill="#272727" transform="translate(112,220)"/>
<path d="M0 0 C1.98 0 3.96 0 6 0 C6 1.65 6 3.3 6 5 C4.02 5 2.04 5 0 5 C0 3.35 0 1.7 0 0 Z " fill="#272727" transform="translate(101,220)"/>
<path d="M0 0 C1.98 0 3.96 0 6 0 C6 1.65 6 3.3 6 5 C4.02 5 2.04 5 0 5 C0 3.35 0 1.7 0 0 Z " fill="#191919" transform="translate(84,220)"/>
<path d="M0 0 C1.98 0 3.96 0 6 0 C6 1.65 6 3.3 6 5 C4.02 5 2.04 5 0 5 C0 3.35 0 1.7 0 0 Z " fill="#272727" transform="translate(56,220)"/>
<path d="M0 0 C1.65 0 3.3 0 5 0 C5 1.98 5 3.96 5 6 C3.35 6 1.7 6 0 6 C0 4.02 0 2.04 0 0 Z " fill="#171717" transform="translate(118,219)"/>
<path d="M0 0 C0.99 0.33 1.98 0.66 3 1 C3 2.65 3 4.3 3 6 C1.02 6 -0.96 6 -3 6 C-2.625 3.5625 -2.625 3.5625 -2 1 C-1.34 0.67 -0.68 0.34 0 0 Z " fill="#2C2C2C" transform="translate(143,214)"/>
<path d="M0 0 C1.98 0 3.96 0 6 0 C6 1.65 6 3.3 6 5 C4.02 5 2.04 5 0 5 C0 3.35 0 1.7 0 0 Z " fill="#191919" transform="translate(219,209)"/>
<path d="M0 0 C1.98 0 3.96 0 6 0 C6 1.65 6 3.3 6 5 C4.02 5 2.04 5 0 5 C0 3.35 0 1.7 0 0 Z " fill="#272727" transform="translate(202,209)"/>
<path d="M0 0 C1.98 0 3.96 0 6 0 C6 1.65 6 3.3 6 5 C4.02 5 2.04 5 0 5 C0 3.35 0 1.7 0 0 Z " fill="#191919" transform="translate(174,209)"/>
<path d="M0 0 C1.98 0 3.96 0 6 0 C6 1.65 6 3.3 6 5 C4.02 5 2.04 5 0 5 C0 3.35 0 1.7 0 0 Z " fill="#191919" transform="translate(39,209)"/>
<path d="M0 0 C1.98 0 3.96 0 6 0 C6 1.65 6 3.3 6 5 C4.02 5 2.04 5 0 5 C0 3.35 0 1.7 0 0 Z " fill="#272727" transform="translate(22,209)"/>
<path d="M0 0 C1.65 0 3.3 0 5 0 C5 1.98 5 3.96 5 6 C3.35 6 1.7 6 0 6 C0 4.02 0 2.04 0 0 Z " fill="#191919" transform="translate(214,203)"/>
<path d="M0 0 C1.65 0 3.3 0 5 0 C5 1.98 5 3.96 5 6 C3.35 6 1.7 6 0 6 C0 4.02 0 2.04 0 0 Z " fill="#191919" transform="translate(34,203)"/>
<path d="M0 0 C1.65 0 3.3 0 5 0 C5 1.98 5 3.96 5 6 C3.35 6 1.7 6 0 6 C0 4.02 0 2.04 0 0 Z " fill="#191919" transform="translate(1,203)"/>
<path d="M0 0 C1.98 0 3.96 0 6 0 C6 1.65 6 3.3 6 5 C4.02 5 2.04 5 0 5 C0 3.35 0 1.7 0 0 Z " fill="#191919" transform="translate(6,198)"/>
<path d="M0 0 C1.98 0 3.96 0 6 0 C6 1.65 6 3.3 6 5 C4.02 5 2.04 5 0 5 C0 3.35 0 1.7 0 0 Z " fill="#191919" transform="translate(6,186)"/>
<path d="M0 0 C1.98 0 3.96 0 6 0 C6 1.65 6 3.3 6 5 C4.02 5 2.04 5 0 5 C0 3.35 0 1.7 0 0 Z " fill="#191919" transform="translate(219,175)"/>
<path d="M0 0 C1.98 0 3.96 0 6 0 C6 1.65 6 3.3 6 5 C4.02 5 2.04 5 0 5 C0 3.35 0 1.7 0 0 Z " fill="#272727" transform="translate(202,175)"/>
<path d="M0 0 C1.98 0 3.96 0 6 0 C6 1.65 6 3.3 6 5 C4.02 5 2.04 5 0 5 C0 3.35 0 1.7 0 0 Z " fill="#191919" transform="translate(6,175)"/>
<path d="M0 0 C1.65 0 3.3 0 5 0 C5 1.98 5 3.96 5 6 C3.35 6 1.7 6 0 6 C0 4.02 0 2.04 0 0 Z " fill="#191919" transform="translate(214,169)"/>
<path d="M0 0 C1.65 0 3.3 0 5 0 C5 1.98 5 3.96 5 6 C3.35 6 1.7 6 0 6 C0 4.02 0 2.04 0 0 Z " fill="#191919" transform="translate(1,169)"/>
<path d="M0 0 C1.98 0 3.96 0 6 0 C6 1.65 6 3.3 6 5 C4.02 5 2.04 5 0 5 C0 3.35 0 1.7 0 0 Z " fill="#272727" transform="translate(219,158)"/>
<path d="M0 0 C1.98 0 3.96 0 6 0 C6 1.65 6 3.3 6 5 C4.02 5 2.04 5 0 5 C0 3.35 0 1.7 0 0 Z " fill="#191919" transform="translate(146,158)"/>
<path d="M0 0 C1.98 0 3.96 0 6 0 C6 1.65 6 3.3 6 5 C4.02 5 2.04 5 0 5 C0 3.35 0 1.7 0 0 Z " fill="#272727" transform="translate(129,158)"/>
<path d="M0 0 C1.65 0 3.3 0 5 0 C5 1.98 5 3.96 5 6 C3.35 6 1.7 6 0 6 C0 4.02 0 2.04 0 0 Z " fill="#191919" transform="translate(152,152)"/>
<path d="M0 0 C1.65 0 3.3 0 5 0 C5 1.98 5 3.96 5 6 C3.35 6 1.7 6 0 6 C0 4.02 0 2.04 0 0 Z " fill="#272727" transform="translate(135,152)"/>
<path d="M0 0 C1.65 0 3.3 0 5 0 C5 1.98 5 3.96 5 6 C3.35 6 1.7 6 0 6 C0 4.02 0 2.04 0 0 Z " fill="#272727" transform="translate(1,152)"/>
<path d="M0 0 C1.65 0 3.3 0 5 0 C5 1.98 5 3.96 5 6 C3.35 6 1.7 6 0 6 C0 4.02 0 2.04 0 0 Z " fill="#191919" transform="translate(90,135)"/>
<path d="M0 0 C4.75 -0.125 4.75 -0.125 7 1 C6.67 2.32 6.34 3.64 6 5 C4.02 5 2.04 5 0 5 C0 3.35 0 1.7 0 0 Z " fill="#2E2E2E" transform="translate(1,130)"/>
<path d="M0 0 C1.65 0 3.3 0 5 0 C5 1.98 5 3.96 5 6 C3.35 6 1.7 6 0 6 C0 4.02 0 2.04 0 0 Z " fill="#191919" transform="translate(79,124)"/>
<path d="M0 0 C1.65 0 3.3 0 5 0 C5 1.98 5 3.96 5 6 C3.35 6 1.7 6 0 6 C0 4.02 0 2.04 0 0 Z " fill="#191919" transform="translate(62,107)"/>
<path d="M0 0 C1.65 0 3.3 0 5 0 C5 1.98 5 3.96 5 6 C3.35 6 1.7 6 0 6 C0 4.02 0 2.04 0 0 Z " fill="#262626" transform="translate(220,101)"/>
<path d="M0 0 C1.98 0 3.96 0 6 0 C6 1.65 6 3.3 6 5 C4.02 5 2.04 5 0 5 C0 3.35 0 1.7 0 0 Z " fill="#272727" transform="translate(219,79)"/>
<path d="M0 0 C1.98 0 3.96 0 6 0 C6 1.65 6 3.3 6 5 C4.02 5 2.04 5 0 5 C0 3.35 0 1.7 0 0 Z " fill="#191919" transform="translate(56,79)"/>
<path d="M0 0 C1.65 0 3.3 0 5 0 C5 1.98 5 3.96 5 6 C3.35 6 1.7 6 0 6 C0 4.02 0 2.04 0 0 Z " fill="#191919" transform="translate(62,73)"/>
<path d="M0 0 C1.65 0 3.3 0 5 0 C5 1.98 5 3.96 5 6 C3.35 6 1.7 6 0 6 C0 4.02 0 2.04 0 0 Z " fill="#272727" transform="translate(1,73)"/>
<path d="M0 0 C1.65 0 3.3 0 5 0 C5 1.65 5 3.3 5 5 C2.69 5.33 0.38 5.66 -2 6 C-1.34 4.02 -0.68 2.04 0 0 Z " fill="#181818" transform="translate(214,68)"/>
<path d="M0 0 C0 1.98 0 3.96 0 6 C-1.98 6 -3.96 6 -6 6 C-5.67 4.35 -5.34 2.7 -5 1 C-1.125 0 -1.125 0 0 0 Z " fill="#272727" transform="translate(12,67)"/>
<path d="M0 0 C1.98 0 3.96 0 6 0 C6 1.65 6 3.3 6 5 C4.02 5 2.04 5 0 5 C0 3.35 0 1.7 0 0 Z " fill="#191919" transform="translate(6,62)"/>
<path d="M0 0 C1.98 0 3.96 0 6 0 C6 1.65 6 3.3 6 5 C4.02 5 2.04 5 0 5 C0 3.35 0 1.7 0 0 Z " fill="#191919" transform="translate(219,51)"/>
<path d="M0 0 C0.78375 0.04125 1.5675 0.0825 2.375 0.125 C2.375 1.775 2.375 3.425 2.375 5.125 C0.725 5.455 -0.925 5.785 -2.625 6.125 C-3.285 4.805 -3.945 3.485 -4.625 2.125 C-2.625 0.125 -2.625 0.125 0 0 Z " fill="#2A2A2A" transform="translate(205.625,50.875)"/>
<path d="M0 0 C1.98 0 3.96 0 6 0 C6 1.65 6 3.3 6 5 C4.02 5 2.04 5 0 5 C0 3.35 0 1.7 0 0 Z " fill="#191919" transform="translate(6,51)"/>
<path d="M0 0 C1.65 0 3.3 0 5 0 C5 1.98 5 3.96 5 6 C3.35 6 1.7 6 0 6 C0 4.02 0 2.04 0 0 Z " fill="#191919" transform="translate(214,45)"/>
<path d="M0 0 C1.65 0 3.3 0 5 0 C5 1.98 5 3.96 5 6 C3.35 6 1.7 6 0 6 C0 4.02 0 2.04 0 0 Z " fill="#191919" transform="translate(1,45)"/>
<path d="M0 0 C1.98 0 3.96 0 6 0 C6 1.65 6 3.3 6 5 C4.02 5 2.04 5 0 5 C0 3.35 0 1.7 0 0 Z " fill="#272727" transform="translate(219,34)"/>
<path d="M0 0 C1.98 0 3.96 0 6 0 C6 1.65 6 3.3 6 5 C4.02 5 2.04 5 0 5 C0 3.35 0 1.7 0 0 Z " fill="#272727" transform="translate(6,34)"/>
<path d="M0 0 C1.65 0 3.3 0 5 0 C5 1.98 5 3.96 5 6 C3.35 6 1.7 6 0 6 C0 4.02 0 2.04 0 0 Z " fill="#191919" transform="translate(197,28)"/>
<path d="M0 0 C1.65 0 3.3 0 5 0 C5 1.98 5 3.96 5 6 C3.35 6 1.7 6 0 6 C0 4.02 0 2.04 0 0 Z " fill="#272727" transform="translate(1,28)"/>
<path d="M0 0 C0 1.98 0 3.96 0 6 C-1.98 6 -3.96 6 -6 6 C-5.67 4.35 -5.34 2.7 -5 1 C-1.125 0 -1.125 0 0 0 Z " fill="#272727" transform="translate(12,22)"/>
<path d="M0 0 C1.65 0 3.3 0 5 0 C5 1.98 5 3.96 5 6 C3.35 6 1.7 6 0 6 C0 4.02 0 2.04 0 0 Z " fill="#181818" transform="translate(214,11)"/>
<path d="M0 0 C1.65 0 3.3 0 5 0 C5 1.98 5 3.96 5 6 C3.35 6 1.7 6 0 6 C0 4.02 0 2.04 0 0 Z " fill="#282828" transform="translate(208,11)"/>
<path d="M0 0 C1.65 0 3.3 0 5 0 C5 1.98 5 3.96 5 6 C3.35 6 1.7 6 0 6 C0 4.02 0 2.04 0 0 Z " fill="#181818" transform="translate(180,11)"/>
<path d="M0 0 C1.65 0 3.3 0 5 0 C5 1.98 5 3.96 5 6 C3.35 6 1.7 6 0 6 C0 4.02 0 2.04 0 0 Z " fill="#181818" transform="translate(169,11)"/>
<path d="M0 0 C1.65 0 3.3 0 5 0 C5 1.98 5 3.96 5 6 C3.35 6 1.7 6 0 6 C0 4.02 0 2.04 0 0 Z " fill="#181818" transform="translate(45,11)"/>
<path d="M0 0 C1.65 0 3.3 0 5 0 C5 1.98 5 3.96 5 6 C3.35 6 1.7 6 0 6 C0 4.02 0 2.04 0 0 Z " fill="#181818" transform="translate(34,11)"/>
<path d="M0 0 C1.65 0 3.3 0 5 0 C5 1.98 5 3.96 5 6 C3.35 6 1.7 6 0 6 C0 4.02 0 2.04 0 0 Z " fill="#282828" transform="translate(28,11)"/>
<path d="M0 0 C1.65 0 3.3 0 5 0 C5 1.98 5 3.96 5 6 C3.35 6 1.7 6 0 6 C0 4.02 0 2.04 0 0 Z " fill="#181818" transform="translate(12,11)"/>
<path d="M0 0 C1.65 0 3.3 0 5 0 C5 1.98 5 3.96 5 6 C3.35 6 1.7 6 0 6 C0 4.02 0 2.04 0 0 Z " fill="#181818" transform="translate(1,11)"/>
<path d="M0 0 C1.98 0 3.96 0 6 0 C6 1.65 6 3.3 6 5 C4.02 5 2.04 5 0 5 C0 3.35 0 1.7 0 0 Z " fill="#272727" transform="translate(219,0)"/>
<path d="M0 0 C1.98 0 3.96 0 6 0 C6 1.65 6 3.3 6 5 C4.02 5 2.04 5 0 5 C0 3.35 0 1.7 0 0 Z " fill="#191919" transform="translate(191,0)"/>
<path d="M0 0 C1.98 0 3.96 0 6 0 C6 1.65 6 3.3 6 5 C4.02 5 2.04 5 0 5 C0 3.35 0 1.7 0 0 Z " fill="#272727" transform="translate(174,0)"/>
<path d="M0 0 C1.98 0 3.96 0 6 0 C6 1.65 6 3.3 6 5 C4.02 5 2.04 5 0 5 C0 3.35 0 1.7 0 0 Z " fill="#191919" transform="translate(146,0)"/>
<path d="M0 0 C1.65 0 3.3 0 5 0 C5 1.65 5 3.3 5 5 C3 6 1 7 -1 8 C-0.67 5.36 -0.34 2.72 0 0 Z " fill="#181818" transform="translate(135,0)"/>
<path d="M0 0 C1.98 0 3.96 0 6 0 C6 1.65 6 3.3 6 5 C4.02 5 2.04 5 0 5 C0 3.35 0 1.7 0 0 Z " fill="#191919" transform="translate(56,0)"/>
<path d="M0 0 C1.98 0 3.96 0 6 0 C6 1.65 6 3.3 6 5 C4.02 5 2.04 5 0 5 C0 3.35 0 1.7 0 0 Z " fill="#272727" transform="translate(39,0)"/>
<path d="M0 0 C1.32 0 2.64 0 4 0 C4 1.98 4 3.96 4 6 C2.35 6 0.7 6 -1 6 C-1.042721 4.33388095 -1.04063832 2.66617115 -1 1 C-0.67 0.67 -0.34 0.34 0 0 Z " fill="#191919" transform="translate(215,214)"/>
<path d="M0 0 C1.32 0 2.64 0 4 0 C4 1.98 4 3.96 4 6 C2.35 6 0.7 6 -1 6 C-1.042721 4.33388095 -1.04063832 2.66617115 -1 1 C-0.67 0.67 -0.34 0.34 0 0 Z " fill="#191919" transform="translate(170,214)"/>
<path d="M0 0 C1.32 0 2.64 0 4 0 C4 1.98 4 3.96 4 6 C2.35 6 0.7 6 -1 6 C-1.042721 4.33388095 -1.04063832 2.66617115 -1 1 C-0.67 0.67 -0.34 0.34 0 0 Z " fill="#191919" transform="translate(35,214)"/>
<path d="M0 0 C1.32 0 2.64 0 4 0 C4 1.98 4 3.96 4 6 C2.35 6 0.7 6 -1 6 C-1.042721 4.33388095 -1.04063832 2.66617115 -1 1 C-0.67 0.67 -0.34 0.34 0 0 Z " fill="#191919" transform="translate(2,214)"/>
<path d="M0 0 C1.65 0 3.3 0 5 0 C5 1.65 5 3.3 5 5 C3.02 5 1.04 5 -1 5 C-0.67 3.35 -0.34 1.7 0 0 Z " fill="#272727" transform="translate(203,198)"/>
<path d="M0 0 C1.65 0 3.3 0 5 0 C5 1.65 5 3.3 5 5 C3.02 5 1.04 5 -1 5 C-0.67 3.35 -0.34 1.7 0 0 Z " fill="#191919" transform="translate(186,198)"/>
<path d="M0 0 C1.65 0 3.3 0 5 0 C5 1.65 5 3.3 5 5 C3.02 5 1.04 5 -1 5 C-0.67 3.35 -0.34 1.7 0 0 Z " fill="#191919" transform="translate(203,192)"/>
<path d="M0 0 C1.65 0 3.3 0 5 0 C5 1.65 5 3.3 5 5 C3.02 5 1.04 5 -1 5 C-0.67 3.35 -0.34 1.7 0 0 Z " fill="#191919" transform="translate(23,192)"/>
<path d="M0 0 C1.32 0 2.64 0 4 0 C4 1.98 4 3.96 4 6 C2.35 6 0.7 6 -1 6 C-1.042721 4.33388095 -1.04063832 2.66617115 -1 1 C-0.67 0.67 -0.34 0.34 0 0 Z " fill="#191919" transform="translate(215,180)"/>
<path d="M0 0 C1.32 0 2.64 0 4 0 C4 1.98 4 3.96 4 6 C2.35 6 0.7 6 -1 6 C-1.042721 4.33388095 -1.04063832 2.66617115 -1 1 C-0.67 0.67 -0.34 0.34 0 0 Z " fill="#191919" transform="translate(2,180)"/>
<path d="M0 0 C1.32 0 2.64 0 4 0 C4 1.98 4 3.96 4 6 C2.35 6 0.7 6 -1 6 C-1.042721 4.33388095 -1.04063832 2.66617115 -1 1 C-0.67 0.67 -0.34 0.34 0 0 Z " fill="#272727" transform="translate(215,163)"/>
<path d="M0 0 C2 2 2 2 2.125 4.625 C2.08375 5.40875 2.0425 6.1925 2 7 C0.35 7 -1.3 7 -3 7 C-3.1875 4.625 -3.1875 4.625 -3 2 C-2.01 1.34 -1.02 0.68 0 0 Z " fill="#161616" transform="translate(127,145)"/>
<path d="M0 0 C1.32 0 2.64 0 4 0 C4 1.98 4 3.96 4 6 C2.35 6 0.7 6 -1 6 C-1.042721 4.33388095 -1.04063832 2.66617115 -1 1 C-0.67 0.67 -0.34 0.34 0 0 Z " fill="#282828" transform="translate(63,101)"/>
<path d="M0 0 C1.32 0 2.64 0 4 0 C4 1.98 4 3.96 4 6 C2.35 6 0.7 6 -1 6 C-1.042721 4.33388095 -1.04063832 2.66617115 -1 1 C-0.67 0.67 -0.34 0.34 0 0 Z " fill="#272727" transform="translate(80,84)"/>
<path d="M0 0 C1.32 0 2.64 0 4 0 C4 1.98 4 3.96 4 6 C2.35 6 0.7 6 -1 6 C-1.042721 4.33388095 -1.04063832 2.66617115 -1 1 C-0.67 0.67 -0.34 0.34 0 0 Z " fill="#272727" transform="translate(2,84)"/>
<path d="M0 0 C1.32 0 2.64 0 4 0 C4 1.98 4 3.96 4 6 C2.35 6 0.7 6 -1 6 C-1.042721 4.33388095 -1.04063832 2.66617115 -1 1 C-0.67 0.67 -0.34 0.34 0 0 Z " fill="#191919" transform="translate(2,56)"/>
<path d="M0 0 C2.875 -0.125 2.875 -0.125 6 0 C6.66 0.66 7.32 1.32 8 2 C7.01 2 6.02 2 5 2 C5 2.99 5 3.98 5 5 C3.35 5 1.7 5 0 5 C0 3.35 0 1.7 0 0 Z " fill="#161616" transform="translate(118,51)"/>
<path d="M0 0 C1.32 0 2.64 0 4 0 C4 1.98 4 3.96 4 6 C2.35 6 0.7 6 -1 6 C-1.042721 4.33388095 -1.04063832 2.66617115 -1 1 C-0.67 0.67 -0.34 0.34 0 0 Z " fill="#272727" transform="translate(2,39)"/>
<path d="M0 0 C1.65 0 3.3 0 5 0 C5 1.65 5 3.3 5 5 C3.02 5 1.04 5 -1 5 C-0.67 3.35 -0.34 1.7 0 0 Z " fill="#191919" transform="translate(203,23)"/>
<path d="M0 0 C1.65 0 3.3 0 5 0 C5 1.65 5 3.3 5 5 C3.02 5 1.04 5 -1 5 C-0.67 3.35 -0.34 1.7 0 0 Z " fill="#191919" transform="translate(23,23)"/>
<path d="M0 0 C1.32 0 2.64 0 4 0 C4 1.98 4 3.96 4 6 C2.35 6 0.7 6 -1 6 C-1.042721 4.33388095 -1.04063832 2.66617115 -1 1 C-0.67 0.67 -0.34 0.34 0 0 Z " fill="#272727" transform="translate(215,5)"/>
<path d="M0 0 C1.32 0 2.64 0 4 0 C4 1.98 4 3.96 4 6 C2.35 6 0.7 6 -1 6 C-1.042721 4.33388095 -1.04063832 2.66617115 -1 1 C-0.67 0.67 -0.34 0.34 0 0 Z " fill="#191919" transform="translate(198,5)"/>
<path d="M0 0 C1.32 0 2.64 0 4 0 C4 1.98 4 3.96 4 6 C2.35 6 0.7 6 -1 6 C-1.042721 4.33388095 -1.04063832 2.66617115 -1 1 C-0.67 0.67 -0.34 0.34 0 0 Z " fill="#191919" transform="translate(153,5)"/>
<path d="M0 0 C1.32 0 2.64 0 4 0 C4 1.98 4 3.96 4 6 C2.35 6 0.7 6 -1 6 C-1.042721 4.33388095 -1.04063832 2.66617115 -1 1 C-0.67 0.67 -0.34 0.34 0 0 Z " fill="#191919" transform="translate(63,5)"/>
<path d="M0 0 C1.32 0 2.64 0 4 0 C4 1.98 4 3.96 4 6 C2.35 6 0.7 6 -1 6 C-1.042721 4.33388095 -1.04063832 2.66617115 -1 1 C-0.67 0.67 -0.34 0.34 0 0 Z " fill="#272727" transform="translate(35,5)"/>
<path d="M0 0 C1.32 0 2.64 0 4 0 C4 1.98 4 3.96 4 6 C2.35 6 0.7 6 -1 6 C-1.042721 4.33388095 -1.04063832 2.66617115 -1 1 C-0.67 0.67 -0.34 0.34 0 0 Z " fill="#272727" transform="translate(2,5)"/>
<path d="M0 0 C1.98 0 3.96 0 6 0 C5.67 1.65 5.34 3.3 5 5 C3.35 5 1.7 5 0 5 C0 3.35 0 1.7 0 0 Z " fill="#272727" transform="translate(208,0)"/>
<path d="M0 0 C1.98 0 3.96 0 6 0 C5.67 1.65 5.34 3.3 5 5 C3.35 5 1.7 5 0 5 C0 3.35 0 1.7 0 0 Z " fill="#272727" transform="translate(163,0)"/>
<path d="M0 0 C1.98 0 3.96 0 6 0 C5.67 1.65 5.34 3.3 5 5 C3.35 5 1.7 5 0 5 C0 3.35 0 1.7 0 0 Z " fill="#272727" transform="translate(73,0)"/>
<path d="M0 0 C1.98 0 3.96 0 6 0 C5.67 1.65 5.34 3.3 5 5 C3.35 5 1.7 5 0 5 C0 3.35 0 1.7 0 0 Z " fill="#272727" transform="translate(28,0)"/>
<path d="M0 0 C4.95 1.98 4.95 1.98 10 4 C10 4.33 10 4.66 10 5 C6.7 5 3.4 5 0 5 C0 3.35 0 1.7 0 0 Z " fill="#222222" transform="translate(67,209)"/>
<path d="M0 0 C1.65 0 3.3 0 5 0 C5.33 1.65 5.66 3.3 6 5 C4.02 5 2.04 5 0 5 C0 3.35 0 1.7 0 0 Z " fill="#171717" transform="translate(73,96)"/>
<path d="M0 0 C1.65 0 3.3 0 5 0 C5.5625 1.9375 5.5625 1.9375 6 4 C5 5 5 5 2.4375 5.0625 C1.2309375 5.0315625 1.2309375 5.0315625 0 5 C0 3.35 0 1.7 0 0 Z " fill="#2D2D2D" transform="translate(1,96)"/>
<path d="M0 0 C2.475 0.99 2.475 0.99 5 2 C4.67 3.32 4.34 4.64 4 6 C2.35 6 0.7 6 -1 6 C-1.042721 4.33388095 -1.04063832 2.66617115 -1 1 C-0.67 0.67 -0.34 0.34 0 0 Z " fill="#171717" transform="translate(125,78)"/>
<path d="M0 0 C2.475 0.495 2.475 0.495 5 1 C4.67 3.31 4.34 5.62 4 8 C2 6.8125 2 6.8125 0 5 C-0.25 2.3125 -0.25 2.3125 0 0 Z " fill="#2E2E2E" transform="translate(107,78)"/>
<path d="M0 0 C1.24546405 2.49092811 0.7767578 3.41080733 0 6 C-1.65 6 -3.3 6 -5 6 C-5 4.35 -5 2.7 -5 1 C-3.35 0.67 -1.7 0.34 0 0 Z " fill="#181818" transform="translate(39,191)"/>
<path d="M0 0 C2.475 0.495 2.475 0.495 5 1 C5 2.98 5 4.96 5 7 C3.35 6.67 1.7 6.34 0 6 C0 4.02 0 2.04 0 0 Z " fill="#333333" transform="translate(146,107)"/>
<path d="M0 0 C1.65 0 3.3 0 5 0 C5 1.65 5 3.3 5 5 C4.34 5 3.68 5 3 5 C2.67 5.66 2.34 6.32 2 7 C0 4 0 4 0 0 Z " fill="#282828" transform="translate(169,17)"/>
<path d="M0 0 C1.32 0 2.64 0 4 0 C4 1.65 4 3.3 4 5 C2.02 5 0.04 5 -2 5 C-1.34 3.35 -0.68 1.7 0 0 Z " fill="#171717" transform="translate(176,198)"/>
<path d="M0 0 C1.32 0.99 2.64 1.98 4 3 C3.67 3.99 3.34 4.98 3 6 C1.35 6 -0.3 6 -2 6 C-2 4.35 -2 2.7 -2 1 C-1.34 0.67 -0.68 0.34 0 0 Z " fill="#282828" transform="translate(47,197)"/>
<path d="M0 0 C2.97 1.98 2.97 1.98 6 4 C4.75 5.5625 4.75 5.5625 3 7 C0.8125 6.6875 0.8125 6.6875 -1 6 C-0.67 4.02 -0.34 2.04 0 0 Z " fill="#2A2A2A" transform="translate(40,191)"/>
<path d="M0 0 C1.65 0 3.3 0 5 0 C5.33 1.32 5.66 2.64 6 4 C4.02 4.33 2.04 4.66 0 5 C0 3.35 0 1.7 0 0 Z " fill="#181818" transform="translate(146,169)"/>
<path d="M0 0 C1.65 0 3.3 0 5 0 C5 1.65 5 3.3 5 5 C3.02 5 1.04 5 -1 5 C-0.67 3.35 -0.34 1.7 0 0 Z " fill="#141414" transform="translate(135,169)"/>
<path d="M0 0 C2.12508244 3.18762365 2.5020163 5.26512223 3 9 C1.35 8.67 -0.3 8.34 -2 8 C-2 6.35 -2 4.7 -2 3 C-1.34 3 -0.68 3 0 3 C0 2.01 0 1.02 0 0 Z " fill="#161616" transform="translate(8,138)"/>
<path d="M0 0 C1.2065625 0.0309375 1.2065625 0.0309375 2.4375 0.0625 C1.625 2.5 1.625 2.5 0.4375 5.0625 C-0.5525 5.3925 -1.5425 5.7225 -2.5625 6.0625 C-2.94468767 4.40635343 -3.27645102 2.73792976 -3.5625 1.0625 C-2.5625 0.0625 -2.5625 0.0625 0 0 Z " fill="#2C2C2C" transform="translate(172.5625,117.9375)"/>
<path d="M0 0 C1.32 0 2.64 0 4 0 C4 1.98 4 3.96 4 6 C2.68 6 1.36 6 0 6 C-1.125 2.25 -1.125 2.25 0 0 Z " fill="#2A2A2A" transform="translate(52,90)"/>
<path d="M0 0 C2.475 0.495 2.475 0.495 5 1 C5 2.65 5 4.3 5 6 C4.34 6 3.68 6 3 6 C2.67 6.99 2.34 7.98 2 9 C1.34 6.03 0.68 3.06 0 0 Z " fill="#171717" transform="translate(214,78)"/>
<path d="M0 0 C1.65 0 3.3 0 5 0 C5.33 0.66 5.66 1.32 6 2 C5.01 3.32 4.02 4.64 3 6 C2.01 5.67 1.02 5.34 0 5 C0 3.35 0 1.7 0 0 Z " fill="#2A2A2A" transform="translate(12,62)"/>
<path d="M0 0 C2.475 0.99 2.475 0.99 5 2 C5 3.32 5 4.64 5 6 C3.35 6 1.7 6 0 6 C0 4.02 0 2.04 0 0 Z " fill="#141414" transform="translate(135,56)"/>
<path d="M0 0 C1.65 0 3.3 0 5 0 C5 1.65 5 3.3 5 5 C3.35 5 1.7 5 0 5 C0 3.35 0 1.7 0 0 Z " fill="#282828" transform="translate(214,220)"/>
<path d="M0 0 C1.65 0 3.3 0 5 0 C5 1.65 5 3.3 5 5 C3.35 5 1.7 5 0 5 C0 3.35 0 1.7 0 0 Z " fill="#181818" transform="translate(208,220)"/>
<path d="M0 0 C1.65 0 3.3 0 5 0 C5 1.65 5 3.3 5 5 C3.35 5 1.7 5 0 5 C0 3.35 0 1.7 0 0 Z " fill="#181818" transform="translate(197,220)"/>
<path d="M0 0 C1.65 0 3.3 0 5 0 C5 1.65 5 3.3 5 5 C3.35 5 1.7 5 0 5 C0 3.35 0 1.7 0 0 Z " fill="#282828" transform="translate(180,220)"/>
<path d="M0 0 C1.65 0 3.3 0 5 0 C5 1.65 5 3.3 5 5 C3.35 5 1.7 5 0 5 C0 3.35 0 1.7 0 0 Z " fill="#282828" transform="translate(169,220)"/>
<path d="M0 0 C1.65 0 3.3 0 5 0 C5 1.65 5 3.3 5 5 C3.35 5 1.7 5 0 5 C0 3.35 0 1.7 0 0 Z " fill="#181818" transform="translate(163,220)"/>
<path d="M0 0 C1.65 0 3.3 0 5 0 C5 1.65 5 3.3 5 5 C3.35 5 1.7 5 0 5 C0 3.35 0 1.7 0 0 Z " fill="#181818" transform="translate(152,220)"/>
<path d="M0 0 C1.65 0 3.3 0 5 0 C5 1.65 5 3.3 5 5 C3.35 5 1.7 5 0 5 C0 3.35 0 1.7 0 0 Z " fill="#282828" transform="translate(135,220)"/>
<path d="M0 0 C1.65 0 3.3 0 5 0 C5 1.65 5 3.3 5 5 C3.35 5 1.7 5 0 5 C0 3.35 0 1.7 0 0 Z " fill="#282828" transform="translate(90,220)"/>
<path d="M0 0 C1.65 0 3.3 0 5 0 C5 1.65 5 3.3 5 5 C3.35 5 1.7 5 0 5 C0 3.35 0 1.7 0 0 Z " fill="#282828" transform="translate(79,220)"/>
<path d="M0 0 C1.65 0 3.3 0 5 0 C5 1.65 5 3.3 5 5 C3.35 5 1.7 5 0 5 C0 3.35 0 1.7 0 0 Z " fill="#181818" transform="translate(73,220)"/>
<path d="M0 0 C1.65 0 3.3 0 5 0 C5 1.65 5 3.3 5 5 C3.35 5 1.7 5 0 5 C0 3.35 0 1.7 0 0 Z " fill="#181818" transform="translate(62,220)"/>
<path d="M0 0 C1.65 0 3.3 0 5 0 C5 1.65 5 3.3 5 5 C3.35 5 1.7 5 0 5 C0 3.35 0 1.7 0 0 Z " fill="#282828" transform="translate(45,220)"/>
<path d="M0 0 C1.65 0 3.3 0 5 0 C5 1.65 5 3.3 5 5 C3.35 5 1.7 5 0 5 C0 3.35 0 1.7 0 0 Z " fill="#282828" transform="translate(34,220)"/>
<path d="M0 0 C1.65 0 3.3 0 5 0 C5 1.65 5 3.3 5 5 C3.35 5 1.7 5 0 5 C0 3.35 0 1.7 0 0 Z " fill="#181818" transform="translate(28,220)"/>
<path d="M0 0 C1.65 0 3.3 0 5 0 C5 1.65 5 3.3 5 5 C3.35 5 1.7 5 0 5 C0 3.35 0 1.7 0 0 Z " fill="#282828" transform="translate(12,220)"/>
<path d="M0 0 C1.65 0 3.3 0 5 0 C5 1.65 5 3.3 5 5 C3.35 5 1.7 5 0 5 C0 3.35 0 1.7 0 0 Z " fill="#282828" transform="translate(1,220)"/>
<path d="M0 0 C1.65 0 3.3 0 5 0 C5 1.65 5 3.3 5 5 C3.35 5 1.7 5 0 5 C0 3.35 0 1.7 0 0 Z " fill="#181818" transform="translate(208,209)"/>
<path d="M0 0 C1.65 0 3.3 0 5 0 C5 1.65 5 3.3 5 5 C3.35 5 1.7 5 0 5 C0 3.35 0 1.7 0 0 Z " fill="#282828" transform="translate(180,209)"/>
<path d="M0 0 C1.65 0 3.3 0 5 0 C5 1.65 5 3.3 5 5 C3.35 5 1.7 5 0 5 C0 3.35 0 1.7 0 0 Z " fill="#181818" transform="translate(163,209)"/>
<path d="M0 0 C1.65 0 3.3 0 5 0 C5 1.65 5 3.3 5 5 C3.35 5 1.7 5 0 5 C0 3.35 0 1.7 0 0 Z " fill="#282828" transform="translate(45,209)"/>
<path d="M0 0 C1.65 0 3.3 0 5 0 C5 1.65 5 3.3 5 5 C3.35 5 1.7 5 0 5 C0 3.35 0 1.7 0 0 Z " fill="#181818" transform="translate(28,209)"/>
<path d="M0 0 C1.65 0 3.3 0 5 0 C5 1.65 5 3.3 5 5 C3.35 5 1.7 5 0 5 C0 3.35 0 1.7 0 0 Z " fill="#282828" transform="translate(1,209)"/>
<path d="M0 0 C1.65 0 3.3 0 5 0 C5 1.65 5 3.3 5 5 C3.35 5 1.7 5 0 5 C0 3.35 0 1.7 0 0 Z " fill="#282828" transform="translate(214,198)"/>
<path d="M0 0 C1.65 0 3.3 0 5 0 C5 1.65 5 3.3 5 5 C3.35 5 1.7 5 0 5 C0 3.35 0 1.7 0 0 Z " fill="#181818" transform="translate(208,198)"/>
<path d="M0 0 C1.65 0 3.3 0 5 0 C5 1.65 5 3.3 5 5 C3.35 5 1.7 5 0 5 C0 3.35 0 1.7 0 0 Z " fill="#181818" transform="translate(197,198)"/>
<path d="M0 0 C1.65 0 3.3 0 5 0 C5 1.65 5 3.3 5 5 C3.35 5 1.7 5 0 5 C0 3.35 0 1.7 0 0 Z " fill="#282828" transform="translate(180,198)"/>
<path d="M0 0 C1.65 0 3.3 0 5 0 C5 1.65 5 3.3 5 5 C3.35 5 1.7 5 0 5 C0 3.35 0 1.7 0 0 Z " fill="#282828" transform="translate(34,198)"/>
<path d="M0 0 C1.65 0 3.3 0 5 0 C5 1.65 5 3.3 5 5 C3.35 5 1.7 5 0 5 C0 3.35 0 1.7 0 0 Z " fill="#181818" transform="translate(28,198)"/>
<path d="M0 0 C1.65 0 3.3 0 5 0 C5 1.65 5 3.3 5 5 C3.35 5 1.7 5 0 5 C0 3.35 0 1.7 0 0 Z " fill="#282828" transform="translate(12,198)"/>
<path d="M0 0 C1.65 0 3.3 0 5 0 C5 1.65 5 3.3 5 5 C3.35 5 1.7 5 0 5 C0 3.35 0 1.7 0 0 Z " fill="#282828" transform="translate(1,198)"/>
<path d="M0 0 C1.65 0 3.3 0 5 0 C5 1.65 5 3.3 5 5 C3.35 5 1.7 5 0 5 C0 3.35 0 1.7 0 0 Z " fill="#181818" transform="translate(214,192)"/>
<path d="M0 0 C1.65 0 3.3 0 5 0 C5 1.65 5 3.3 5 5 C3.35 5 1.7 5 0 5 C0 3.35 0 1.7 0 0 Z " fill="#282828" transform="translate(208,192)"/>
<path d="M0 0 C1.65 0 3.3 0 5 0 C5 1.65 5 3.3 5 5 C3.35 5 1.7 5 0 5 C0 3.35 0 1.7 0 0 Z " fill="#282828" transform="translate(28,192)"/>
<path d="M0 0 C1.65 0 3.3 0 5 0 C5 1.65 5 3.3 5 5 C3.35 5 1.7 5 0 5 C0 3.35 0 1.7 0 0 Z " fill="#181818" transform="translate(1,192)"/>
<path d="M0 0 C1.65 0 3.3 0 5 0 C5 1.65 5 3.3 5 5 C3.35 5 1.7 5 0 5 C0 3.35 0 1.7 0 0 Z " fill="#282828" transform="translate(214,186)"/>
<path d="M0 0 C1.65 0 3.3 0 5 0 C5 1.65 5 3.3 5 5 C3.35 5 1.7 5 0 5 C0 3.35 0 1.7 0 0 Z " fill="#181818" transform="translate(208,186)"/>
<path d="M0 0 C1.65 0 3.3 0 5 0 C5 1.65 5 3.3 5 5 C3.35 5 1.7 5 0 5 C0 3.35 0 1.7 0 0 Z " fill="#181818" transform="translate(28,186)"/>
<path d="M0 0 C1.65 0 3.3 0 5 0 C5 1.65 5 3.3 5 5 C3.35 5 1.7 5 0 5 C0 3.35 0 1.7 0 0 Z " fill="#282828" transform="translate(12,186)"/>
<path d="M0 0 C1.65 0 3.3 0 5 0 C5 1.65 5 3.3 5 5 C3.35 5 1.7 5 0 5 C0 3.35 0 1.7 0 0 Z " fill="#282828" transform="translate(1,186)"/>
<path d="M0 0 C1.65 0 3.3 0 5 0 C5 1.65 5 3.3 5 5 C3.35 5 1.7 5 0 5 C0 3.35 0 1.7 0 0 Z " fill="#181818" transform="translate(208,175)"/>
<path d="M0 0 C1.65 0 3.3 0 5 0 C5 1.65 5 3.3 5 5 C3.35 5 1.7 5 0 5 C0 3.35 0 1.7 0 0 Z " fill="#282828" transform="translate(1,175)"/>
<path d="M0 0 C1.65 0 3.3 0 5 0 C5 1.65 5 3.3 5 5 C3.35 5 1.7 5 0 5 C0 3.35 0 1.7 0 0 Z " fill="#282828" transform="translate(118,158)"/>
<path d="M0 0 C1.65 0 3.3 0 5 0 C5 1.65 5 3.3 5 5 C3.35 5 1.7 5 0 5 C0 3.35 0 1.7 0 0 Z " fill="#181818" transform="translate(1,158)"/>
<path d="M0 0 C1.65 0 3.3 0 5 0 C4.67 1.65 4.34 3.3 4 5 C2.35 5 0.7 5 -1 5 C-0.67 3.35 -0.34 1.7 0 0 Z " fill="#2A2A2A" transform="translate(7,147)"/>
<path d="M0 0 C1.65 0 3.3 0 5 0 C5 1.65 5 3.3 5 5 C3.35 5 1.7 5 0 5 C0 3.35 0 1.7 0 0 Z " fill="#181818" transform="translate(1,147)"/>
<path d="M0 0 C1.65 0 3.3 0 5 0 C5 1.65 5 3.3 5 5 C3.35 5 1.7 5 0 5 C0 3.35 0 1.7 0 0 Z " fill="#282828" transform="translate(1,141)"/>
<path d="M0 0 C1.65 0 3.3 0 5 0 C5 1.65 5 3.3 5 5 C3.35 5 1.7 5 0 5 C0 3.35 0 1.7 0 0 Z " fill="#282828" transform="translate(90,130)"/>
<path d="M0 0 C1.65 0 3.3 0 5 0 C5 1.65 5 3.3 5 5 C3.35 5 1.7 5 0 5 C0 3.35 0 1.7 0 0 Z " fill="#282828" transform="translate(79,130)"/>
<path d="M0 0 C1.65 0 3.3 0 5 0 C5 1.65 5 3.3 5 5 C3.35 5 1.7 5 0 5 C0 3.35 0 1.7 0 0 Z " fill="#272727" transform="translate(220,113)"/>
<path d="M0 0 C0 1.65 0 3.3 0 5 C-1.65 5.33 -3.3 5.66 -5 6 C-5 4.35 -5 2.7 -5 1 C-1.125 0 -1.125 0 0 0 Z " fill="#272727" transform="translate(169,112)"/>
<path d="M0 0 C1.65 0 3.3 0 5 0 C5 1.65 5 3.3 5 5 C3.35 5 1.7 5 0 5 C0 3.35 0 1.7 0 0 Z " fill="#181818" transform="translate(163,96)"/>
<path d="M0 0 C1.65 0 3.3 0 5 0 C5 1.65 5 3.3 5 5 C3.35 5 1.7 5 0 5 C0 3.35 0 1.7 0 0 Z " fill="#282828" transform="translate(51,79)"/>
<path d="M0 0 C1.65 0 3.3 0 5 0 C5 1.65 5 3.3 5 5 C3.35 5 1.7 5 0 5 C0 3.35 0 1.7 0 0 Z " fill="#282828" transform="translate(62,68)"/>
<path d="M0 0 C1.65 0 3.3 0 5 0 C5 1.65 5 3.3 5 5 C3.35 5 1.7 5 0 5 C0 3.35 0 1.7 0 0 Z " fill="#181818" transform="translate(1,68)"/>
<path d="M0 0 C1.65 0 3.3 0 5 0 C5 1.65 5 3.3 5 5 C3.35 5 1.7 5 0 5 C0 3.35 0 1.7 0 0 Z " fill="#282828" transform="translate(135,62)"/>
<path d="M0 0 C1.65 0 3.3 0 5 0 C5 1.65 5 3.3 5 5 C3.35 5 1.7 5 0 5 C0 3.35 0 1.7 0 0 Z " fill="#181818" transform="translate(208,51)"/>
<path d="M0 0 C1.65 0 3.3 0 5 0 C5 1.65 5 3.3 5 5 C3.35 5 1.7 5 0 5 C0 3.35 0 1.7 0 0 Z " fill="#282828" transform="translate(1,51)"/>
<path d="M0 0 C1.65 0 3.3 0 5 0 C5 1.65 5 3.3 5 5 C3.35 5 1.7 5 0 5 C0 3.35 0 1.7 0 0 Z " fill="#181818" transform="translate(12,34)"/>
<path d="M0 0 C1.65 0 3.3 0 5 0 C5 1.65 5 3.3 5 5 C3.35 5 1.7 5 0 5 C0 3.35 0 1.7 0 0 Z " fill="#181818" transform="translate(1,34)"/>
<path d="M0 0 C1.65 0 3.3 0 5 0 C5 1.65 5 3.3 5 5 C3.35 5 1.7 5 0 5 C0 3.35 0 1.7 0 0 Z " fill="#181818" transform="translate(214,23)"/>
<path d="M0 0 C1.65 0 3.3 0 5 0 C5 1.65 5 3.3 5 5 C3.35 5 1.7 5 0 5 C0 3.35 0 1.7 0 0 Z " fill="#282828" transform="translate(208,23)"/>
<path d="M0 0 C1.65 0 3.3 0 5 0 C5 1.65 5 3.3 5 5 C3.35 5 1.7 5 0 5 C0 3.35 0 1.7 0 0 Z " fill="#181818" transform="translate(34,23)"/>
<path d="M0 0 C1.65 0 3.3 0 5 0 C5 1.65 5 3.3 5 5 C3.35 5 1.7 5 0 5 C0 3.35 0 1.7 0 0 Z " fill="#282828" transform="translate(28,23)"/>
<path d="M0 0 C1.65 0 3.3 0 5 0 C5 1.65 5 3.3 5 5 C3.35 5 1.7 5 0 5 C0 3.35 0 1.7 0 0 Z " fill="#181818" transform="translate(12,23)"/>
<path d="M0 0 C1.65 0 3.3 0 5 0 C5 1.65 5 3.3 5 5 C3.35 5 1.7 5 0 5 C0 3.35 0 1.7 0 0 Z " fill="#181818" transform="translate(1,23)"/>
<path d="M0 0 C1.65 0 3.3 0 5 0 C5 1.65 5 3.3 5 5 C3.35 5 1.7 5 0 5 C0 3.35 0 1.7 0 0 Z " fill="#282828" transform="translate(214,17)"/>
<path d="M0 0 C1.65 0 3.3 0 5 0 C5 1.65 5 3.3 5 5 C3.35 5 1.7 5 0 5 C0 3.35 0 1.7 0 0 Z " fill="#181818" transform="translate(208,17)"/>
<path d="M0 0 C1.65 0 3.3 0 5 0 C5 1.65 5 3.3 5 5 C3.35 5 1.7 5 0 5 C0 3.35 0 1.7 0 0 Z " fill="#282828" transform="translate(34,17)"/>
<path d="M0 0 C1.65 0 3.3 0 5 0 C5 1.65 5 3.3 5 5 C3.35 5 1.7 5 0 5 C0 3.35 0 1.7 0 0 Z " fill="#181818" transform="translate(28,17)"/>
<path d="M0 0 C1.65 0 3.3 0 5 0 C5 1.65 5 3.3 5 5 C3.35 5 1.7 5 0 5 C0 3.35 0 1.7 0 0 Z " fill="#282828" transform="translate(12,17)"/>
<path d="M0 0 C1.65 0 3.3 0 5 0 C5 1.65 5 3.3 5 5 C3.35 5 1.7 5 0 5 C0 3.35 0 1.7 0 0 Z " fill="#282828" transform="translate(1,17)"/>
<path d="M0 0 C1.32 0 2.64 0 4 0 C4 1.65 4 3.3 4 5 C2.68 5.33 1.36 5.66 0 6 C-0.38218767 4.34385343 -0.71395102 2.67542976 -1 1 C-0.67 0.67 -0.34 0.34 0 0 Z " fill="#282828" transform="translate(80,5)"/>
<path d="M0 0 C1.65 0 3.3 0 5 0 C5 1.65 5 3.3 5 5 C3.35 5 1.7 5 0 5 C0 3.35 0 1.7 0 0 Z " fill="#282828" transform="translate(118,0)"/>
<path d="M0 0 C1.65 0 3.3 0 5 0 C5 1.65 5 3.3 5 5 C3.35 5 1.7 5 0 5 C0 3.35 0 1.7 0 0 Z " fill="#282828" transform="translate(107,0)"/>
<path d="M0 0 C1.65 0 3.3 0 5 0 C5 1.65 5 3.3 5 5 C3.35 5 1.7 5 0 5 C0 3.35 0 1.7 0 0 Z " fill="#181818" transform="translate(90,0)"/>
<path d="M0 0 C1.65 0 3.3 0 5 0 C5 1.65 5 3.3 5 5 C3.35 5 1.7 5 0 5 C0 3.35 0 1.7 0 0 Z " fill="#181818" transform="translate(12,0)"/>
<path d="M0 0 C1.65 0 3.3 0 5 0 C5 1.65 5 3.3 5 5 C3.35 5 1.7 5 0 5 C0 3.35 0 1.7 0 0 Z " fill="#181818" transform="translate(1,0)"/>
<path d="M0 0 C0.66 0.33 1.32 0.66 2 1 C2 2.65 2 4.3 2 6 C0.35 6 -1.3 6 -3 6 C-3 3 -3 3 -1.5 1.3125 C-0.7575 0.6628125 -0.7575 0.6628125 0 0 Z " fill="#181818" transform="translate(195,180)"/>
<path d="M0 0 C0.99 0 1.98 0 3 0 C3 1.65 3 3.3 3 5 C1.02 5 -0.96 5 -3 5 C-1.125 1.125 -1.125 1.125 0 0 Z " fill="#171717" transform="translate(199,175)"/>
<path d="M0 0 C1.32 0 2.64 0 4 0 C4 1.98 4 3.96 4 6 C2.68 6 1.36 6 0 6 C0 4.02 0 2.04 0 0 Z " fill="#272727" transform="translate(1,107)"/>
<path d="M0 0 C4.875 1.75 4.875 1.75 6 4 C0.06 4.495 0.06 4.495 -6 5 C-6 4.34 -6 3.68 -6 3 C-4.02 3 -2.04 3 0 3 C0 2.01 0 1.02 0 0 Z " fill="#1F1F1F" transform="translate(73,64)"/>
<path d="M0 0 C1.32 0 2.64 0 4 0 C4 1.65 4 3.3 4 5 C2.35 5 0.7 5 -1 5 C-0.67 3.35 -0.34 1.7 0 0 Z " fill="#272727" transform="translate(108,56)"/>
<path d="M0 0 C1.32 0 2.64 0 4 0 C4 1.98 4 3.96 4 6 C2.68 6 1.36 6 0 6 C0 4.02 0 2.04 0 0 Z " fill="#191919" transform="translate(18,28)"/>
<path d="M0 0 C1.32 0 2.64 0 4 0 C4 1.98 4 3.96 4 6 C2.68 6 1.36 6 0 6 C0 4.02 0 2.04 0 0 Z " fill="#282828" transform="translate(18,11)"/>
<path d="M0 0 C0.99 0 1.98 0 3 0 C3 1.98 3 3.96 3 6 C1.68 6 0.36 6 -1 6 C-1.042721 4.33388095 -1.04063832 2.66617115 -1 1 C-0.67 0.67 -0.34 0.34 0 0 Z " fill="#272727" transform="translate(19,180)"/>
<path d="M0 0 C0.99 0 1.98 0 3 0 C3 1.98 3 3.96 3 6 C1.68 6 0.36 6 -1 6 C-1.042721 4.33388095 -1.04063832 2.66617115 -1 1 C-0.67 0.67 -0.34 0.34 0 0 Z " fill="#272727" transform="translate(2,118)"/>
<path d="M0 0 C0.99 0 1.98 0 3 0 C3 1.98 3 3.96 3 6 C1.68 6 0.36 6 -1 6 C-1.042721 4.33388095 -1.04063832 2.66617115 -1 1 C-0.67 0.67 -0.34 0.34 0 0 Z " fill="#181818" transform="translate(2,101)"/>
<path d="M0 0 C0.90105469 0.00902344 1.80210937 0.01804687 2.73046875 0.02734375 C3.41753906 0.03894531 4.10460937 0.05054687 4.8125 0.0625 C4.8125 0.3925 4.8125 0.7225 4.8125 1.0625 C1.8425 1.0625 -1.1275 1.0625 -4.1875 1.0625 C-4.5175 2.3825 -4.8475 3.7025 -5.1875 5.0625 C-5.8475 5.0625 -6.5075 5.0625 -7.1875 5.0625 C-7.5175 3.7425 -7.8475 2.4225 -8.1875 1.0625 C-5.17259443 0.05753148 -3.14568308 -0.04085303 0 0 Z " fill="#212121" transform="translate(218.1875,66.9375)"/>
<path d="M0 0 C1.32 0 2.64 0 4 0 C4 1.65 4 3.3 4 5 C2.35 4.67 0.7 4.34 -1 4 C-0.67 2.68 -0.34 1.36 0 0 Z " fill="#171717" transform="translate(209,62)"/>
<path d="M0 0 C0 1.98 0 3.96 0 6 C-1.65 6.33 -3.3 6.66 -5 7 C-4.39816251 4.97954558 -3.72693904 2.97888961 -3 1 C-1 0 -1 0 0 0 Z " fill="#1E1E1E" transform="translate(214,151)"/>
<path d="M0 0 C2.475 0.99 2.475 0.99 5 2 C5 2.99 5 3.98 5 5 C3.35 5 1.7 5 0 5 C0 3.35 0 1.7 0 0 Z " fill="#151515" transform="translate(56,204)"/>
<path d="M0 0 C3.16115776 1.36983503 3.9927092 1.9890638 6 5 C3.50907189 6.24546405 2.58919267 5.7767578 0 5 C0 3.35 0 1.7 0 0 Z " fill="#323232" transform="translate(34,186)"/>
<path d="M0 0 C1.65 1.32 3.3 2.64 5 4 C4.67 4.99 4.34 5.98 4 7 C2.68 6.67 1.36 6.34 0 6 C0 4.02 0 2.04 0 0 Z " fill="#171717" transform="translate(157,146)"/>
<path d="M0 0 C2.475 0.495 2.475 0.495 5 1 C4.67 2.32 4.34 3.64 4 5 C2.68 5 1.36 5 0 5 C0 3.35 0 1.7 0 0 Z " fill="#292929" transform="translate(6,79)"/>
<path d="M0 0 C1.98 0 3.96 0 6 0 C6.33 0.66 6.66 1.32 7 2 C4.35261084 3.4606285 3.10551666 4 0 4 C0 2.68 0 1.36 0 0 Z " fill="#141414" transform="translate(67,11)"/>
<path d="M0 0 C1.65 0 3.3 0 5 0 C5 0.66 5 1.32 5 2 C5.66 2.33 6.32 2.66 7 3 C4.69 3.33 2.38 3.66 0 4 C0 2.68 0 1.36 0 0 Z " fill="#141414" transform="translate(84,5)"/>
<path d="M0 0 C1.32 0 2.64 0 4 0 C4 1.65 4 3.3 4 5 C2.68 5 1.36 5 0 5 C0 3.35 0 1.7 0 0 Z " fill="#181818" transform="translate(18,220)"/>
<path d="M0 0 C-0.33 0.99 -0.66 1.98 -1 3 C-2.65 3 -4.3 3 -6 3 C-6.33 2.01 -6.66 1.02 -7 0 C-3.86650268 -1.04449911 -3.01031744 -0.93423645 0 0 Z " fill="#131313" transform="translate(141,217)"/>
<path d="M0 0 C1.32 0 2.64 0 4 0 C4 1.65 4 3.3 4 5 C2.68 5 1.36 5 0 5 C0 3.35 0 1.7 0 0 Z " fill="#181818" transform="translate(18,198)"/>
<path d="M0 0 C0.66 0 1.32 0 2 0 C2 1.65 2 3.3 2 5 C0.02 5 -1.96 5 -4 5 C-2.71937515 3.2925002 -1.38232443 1.62626404 0 0 Z " fill="#131313" transform="translate(183,192)"/>
<path d="M0 0 C1.32 0 2.64 0 4 0 C4 1.65 4 3.3 4 5 C2.68 5 1.36 5 0 5 C0 3.35 0 1.7 0 0 Z " fill="#181818" transform="translate(18,186)"/>
<path d="M0 0 C1.32 0 2.64 0 4 0 C4 1.65 4 3.3 4 5 C2.68 5 1.36 5 0 5 C0 3.35 0 1.7 0 0 Z " fill="#181818" transform="translate(1,113)"/>
<path d="M0 0 C0.66 0 1.32 0 2 0 C2.1953125 6.0546875 2.1953125 6.0546875 2 8 C1.34 8.66 0.68 9.32 0 10 C-1.125 3.375 -1.125 3.375 0 0 Z " fill="#353535" transform="translate(217,84)"/>
<path d="M0 0 C1.5625 1.25 1.5625 1.25 3 3 C2.6875 5.1875 2.6875 5.1875 2 7 C1.01 7 0.02 7 -1 7 C-0.67 4.69 -0.34 2.38 0 0 Z " fill="#2B2B2B" transform="translate(85,77)"/>
<path d="M0 0 C2.64 0.33 5.28 0.66 8 1 C8 1.99 8 2.98 8 4 C6.35 4 4.7 4 3 4 C3 3.01 3 2.02 3 1 C2.01 0.67 1.02 0.34 0 0 Z " fill="#171717" transform="translate(115,75)"/>
<path d="M0 0 C1.32 0 2.64 0 4 0 C4 1.65 4 3.3 4 5 C2.68 5 1.36 5 0 5 C0 3.35 0 1.7 0 0 Z " fill="#181818" transform="translate(18,17)"/>
<path d="M0 0 C2 3 2 3 1.625 5.1875 C1.41875 5.785625 1.2125 6.38375 1 7 C0.01 7 -0.98 7 -2 7 C-2 5.35 -2 3.7 -2 2 C-1.34 2 -0.68 2 0 2 C0 1.34 0 0.68 0 0 Z " fill="#2B2B2B" transform="translate(171,94)"/>
<path d="M0 0 C1.65 1.65 3.3 3.3 5 5 C3.35 5.33 1.7 5.66 0 6 C0 4.02 0 2.04 0 0 Z " fill="#2B2B2B" transform="translate(152,67)"/>
<path d="M0 0 C0.66 1.32 1.32 2.64 2 4 C0.02 4 -1.96 4 -4 4 C-4 3.01 -4 2.02 -4 1 C-2.68 0.67 -1.36 0.34 0 0 Z " fill="#292929" transform="translate(144,137)"/>
<path d="M0 0 C0.33 0.66 0.66 1.32 1 2 C1.66 2 2.32 2 3 2 C3.33 4.31 3.66 6.62 4 9 C3.67 8.01 3.34 7.02 3 6 C2.01 6 1.02 6 0 6 C0 4.02 0 2.04 0 0 Z " fill="#111111" transform="translate(146,101)"/>
<path d="M0 0 C2.97 1.98 2.97 1.98 6 4 C5.34 4.66 4.68 5.32 4 6 C1.875 5.625 1.875 5.625 0 5 C0 3.35 0 1.7 0 0 Z " fill="#2A2A2A" transform="translate(146,62)"/>
<path d="M0 0 C1.32 0 2.64 0 4 0 C4 1.98 4 3.96 4 6 C3.34 6 2.68 6 2 6 C1.34 4.02 0.68 2.04 0 0 Z " fill="#151515" transform="translate(204,56)"/>
<path d="M0 0 C0.33 0.66 0.66 1.32 1 2 C1.66 2 2.32 2 3 2 C3 2.66 3 3.32 3 4 C1.02 4 -0.96 4 -3 4 C-3 3.01 -3 2.02 -3 1 C-2.01 0.67 -1.02 0.34 0 0 Z " fill="#292929" transform="translate(87,216)"/>
<path d="M0 0 C0.66 0.33 1.32 0.66 2 1 C2 2.98 2 4.96 2 7 C1.01 7 0.02 7 -1 7 C-0.67 4.69 -0.34 2.38 0 0 Z " fill="#131313" transform="translate(217,134)"/>
</svg>
